<?xml version="1.0" encoding="UTF-8"?>
<svg version="1.1" xmlns="http://www.w3.org/2000/svg" width="512" height="512">
<path d="M0 0 C5.46978294 2.93351487 9.77879075 7.26010005 14.1875 11.5625 C15.30256042 12.60504975 16.41848802 13.64667255 17.53515625 14.6875 C25.34783782 22.08887204 32.38044069 29.57620502 33.390625 40.82421875 C33.62587875 52.9986002 29.43559694 58.98368356 21.1875 67.5625 C15.21589524 73.6921901 9.14911329 79.72748846 3.09155273 85.77197266 C1.25752125 87.60572173 -0.57628939 89.43969169 -2.40989685 91.27386475 C-6.34180326 95.20629276 -10.27552058 99.13690148 -14.21051216 103.06624222 C-19.89968342 108.7472489 -25.58605574 114.43105052 -31.27177238 120.11551444 C-40.49896651 129.34052581 -49.72838653 138.56330685 -58.95922852 147.78466797 C-67.92036849 156.73661371 -76.88044623 165.68962047 -85.83911133 174.64404297 C-86.39232799 175.19699691 -86.94554466 175.74995085 -87.51552547 176.31966098 C-90.29114426 179.09397463 -93.06674233 181.86830901 -95.8423301 184.6426537 C-118.82917531 207.61915046 -141.81964213 230.59202016 -164.8125 253.5625 C-163.46006616 256.58087539 -161.95412622 258.66716173 -159.61307049 260.99405861 C-158.61895484 261.98952216 -158.61895484 261.98952216 -157.60475606 263.00509608 C-156.87471216 263.72590369 -156.14466827 264.4467113 -155.39250183 265.18936157 C-154.61844586 265.96159856 -153.84438989 266.73383555 -153.04687768 267.52947366 C-150.44373812 270.12417847 -147.83353752 272.71166413 -145.22338867 275.29931641 C-143.35884525 277.15511292 -141.49477678 279.01138672 -139.63114929 280.86810303 C-135.61256535 284.8706758 -131.59061631 288.86984097 -127.56664085 292.86699295 C-121.20255083 299.18915069 -114.84826442 305.52111117 -108.49543762 311.85458374 C-106.32087636 314.02226493 -104.14623922 316.18986996 -101.97157001 318.35744286 C-101.42808068 318.89916054 -100.88459135 319.44087822 -100.32463264 319.99901158 C-94.13808163 326.16506778 -87.94920657 332.32878926 -81.75952148 338.49169922 C-81.19374723 339.05503091 -80.62797298 339.61836261 -80.04505406 340.19876496 C-70.88340738 349.320435 -61.71584636 358.4361442 -52.54696544 367.55054159 C-43.12813003 376.91388891 -33.71897935 386.28689704 -24.31786329 395.66803491 C-18.52236412 401.45047849 -12.71901855 407.2248156 -6.90524159 412.98888306 C-2.91793495 416.94339928 1.06017591 420.90701328 5.03127984 424.87779935 C7.32024377 427.16599895 9.61438636 429.44853703 11.91706085 431.72294998 C14.41864806 434.19507509 16.90422574 436.68229161 19.3865509 439.17373657 C20.10990263 439.88115986 20.83325436 440.58858314 21.57852584 441.31744349 C28.48787817 448.3166635 32.66217628 455.8646226 33.4375 465.75 C32.8019983 475.44140096 29.64296472 481.15503114 22.78808594 487.95458984 C20.86903574 489.88242154 19.00358146 491.85733068 17.1328125 493.83203125 C15.65255348 495.36864531 14.17077039 496.90379258 12.6875 498.4375 C11.98802246 499.17556885 11.28854492 499.9136377 10.56787109 500.67407227 C4.83660556 506.49132678 -0.48072588 509.96379951 -8.65625 511.09375 C-27.3366975 510.93408806 -35.80103496 500.72752781 -48.44734192 488.06809998 C-49.36299051 487.1554225 -50.27863911 486.24274503 -51.22203463 485.30241066 C-53.73456072 482.7978576 -56.24403361 480.29026573 -58.75294769 477.78209507 C-61.47029414 475.06661605 -64.1904808 472.35398441 -66.9102478 469.64093018 C-72.84024061 463.72444663 -78.7665199 457.80425299 -84.69196916 451.88321948 C-88.3951709 448.18278977 -92.09910536 444.48309407 -95.80316734 440.78352547 C-106.07106112 430.52780901 -116.33801872 420.2711574 -126.60152149 410.01104641 C-127.25668978 409.35609768 -127.91185807 408.70114896 -128.58687995 408.0263533 C-129.24353505 407.36991648 -129.90019016 406.71347965 -130.5767439 406.0371508 C-131.90719946 404.7071387 -133.23765657 403.37712814 -134.56811523 402.04711914 C-135.22805576 401.38740004 -135.88799629 400.72768095 -136.56793501 400.04797036 C-147.27672556 389.34313336 -157.9922613 378.64507546 -168.71069709 367.9498968 C-179.73090491 356.95340738 -190.74547375 345.95129603 -201.75441188 334.94352394 C-207.92954253 328.76930917 -214.10705877 322.59752432 -220.29081154 316.43194389 C-225.55153841 311.18662376 -230.8070883 305.93618473 -236.05598853 300.6790288 C-238.73233268 297.99878176 -241.41102421 295.32099909 -244.09633827 292.6497364 C-247.00994357 289.7512381 -249.91174183 286.84119572 -252.81257629 283.92991638 C-253.65887236 283.09167672 -254.50516842 282.25343706 -255.37710983 281.3897962 C-263.17717183 273.52388466 -268.70131483 266.12699958 -269.125 254.6875 C-268.66430699 239.43856141 -257.29131497 230.89332905 -247.13500977 220.73110962 C-246.19300238 219.7850741 -245.25120155 218.83883287 -244.30958652 217.89240682 C-241.74994967 215.32095224 -239.18728913 212.75253067 -236.62403917 210.18467832 C-233.84928098 207.40390823 -231.07731931 204.62035245 -228.30490112 201.83724976 C-221.62908821 195.1370587 -214.94845519 188.44168424 -208.2669158 181.74720436 C-206.37836171 179.85493083 -204.48993433 177.96253095 -202.60155106 176.07008696 C-190.85605789 164.29937473 -179.10897284 152.53025371 -167.35710144 140.76590919 C-164.64332143 138.04919996 -161.9295577 135.33247446 -159.21582031 132.61572266 C-158.54141045 131.94056675 -157.86700059 131.26541083 -157.17215407 130.56979565 C-146.2291708 119.61413802 -135.29652197 108.64822673 -124.36802256 97.67812307 C-113.13228236 86.3999614 -101.88713495 75.13124839 -90.63277721 63.8716644 C-84.32006348 57.55553935 -78.01156995 51.23532099 -71.71365356 44.90443802 C-66.3556769 39.51845849 -60.98927291 34.14105931 -55.61168122 28.77466114 C-52.86999652 26.03816008 -50.13249692 23.29779446 -47.40581894 20.54633331 C-44.44734476 17.56119428 -41.46977 14.59586033 -38.48999023 11.63198853 C-37.20781789 10.32899305 -37.20781789 10.32899305 -35.89974308 8.99967444 C-26.00997347 -0.76046931 -13.75725194 -5.30252872 0 0 Z " fill="#1E2838" transform="translate(373.8125,1.4375)"/>
</svg>
