<?xml version="1.0" encoding="UTF-8"?>
<svg version="1.1" xmlns="http://www.w3.org/2000/svg" width="512" height="512">
<path d="M0 0 C0.82702927 -0.00979385 1.65405853 -0.01958771 2.50614929 -0.02967834 C21.39090617 -0.20712909 39.54497638 0.12379962 58.06640625 4.23828125 C59.04657715 4.45258789 60.02674805 4.66689453 61.03662109 4.88769531 C95.51967173 12.65358805 127.22010558 28.22716639 154.06640625 51.23828125 C154.80117188 51.8621875 155.5359375 52.48609375 156.29296875 53.12890625 C157.89064844 54.4910714 159.4798057 55.86322744 161.06640625 57.23828125 C159.94128153 60.6136554 159.58893936 60.80942898 156.6640625 62.48046875 C155.94686035 62.90086426 155.2296582 63.32125977 154.49072266 63.75439453 C153.71132324 64.20282715 152.93192383 64.65125977 152.12890625 65.11328125 C144.38083423 69.68321906 137.08887556 74.67199495 129.90649414 80.08544922 C128.84483032 80.87653076 128.84483032 80.87653076 127.76171875 81.68359375 C127.14312988 82.15297363 126.52454102 82.62235352 125.88720703 83.10595703 C123.8890269 84.34859037 122.40546215 84.96620966 120.06640625 85.23828125 C117.78101453 83.84232298 115.78758972 82.44152572 113.69140625 80.80078125 C76.47610152 53.03659604 29.73870034 42.78134532 -15.93359375 49.23828125 C-49.15877594 54.52260446 -79.57024585 69.20547398 -104.93359375 91.23828125 C-105.65804687 91.8415625 -106.3825 92.44484375 -107.12890625 93.06640625 C-111.89578607 97.09016032 -115.92972785 101.46666374 -119.93359375 106.23828125 C-120.67222656 107.06585938 -121.41085938 107.8934375 -122.171875 108.74609375 C-151.4214311 142.24080074 -166.58352079 188.16148837 -163.79296875 232.47119141 C-160.866064 271.94283018 -145.93704703 308.30407341 -119.93359375 338.23828125 C-119.3303125 338.96273438 -118.72703125 339.6871875 -118.10546875 340.43359375 C-114.08171468 345.20047357 -109.70521126 349.23441535 -104.93359375 353.23828125 C-104.10601562 353.97691406 -103.2784375 354.71554687 -102.42578125 355.4765625 C-73.0657802 381.11544921 -33.8468273 396.11952579 5.06640625 397.23828125 C6.05640625 397.27824219 7.04640625 397.31820313 8.06640625 397.359375 C54.21637047 398.36007575 97.70299213 380.71969454 131.20703125 349.4140625 C165.55733112 316.49384017 183.93953408 271.61761163 186.25390625 224.4140625 C186.71242298 197.90606419 181.57322336 169.67698111 168.94799805 146.15454102 C167.7098309 143.46321619 168.11929141 142.00473763 169.06640625 139.23828125 C170.5625 137.53515625 170.5625 137.53515625 172.50390625 135.98828125 C175.65487298 133.40058468 178.6987337 130.75835832 181.69140625 127.98828125 C185.8422139 124.25642158 190.09368883 120.67430861 194.44140625 117.17578125 C195.03646973 116.68625977 195.6315332 116.19673828 196.24462891 115.69238281 C199.54636321 113.0738629 200.7113736 112.23828125 205.06640625 112.23828125 C217.23456671 133.78024381 225.22055403 155.98075267 230.06640625 180.23828125 C230.24429687 181.09405762 230.4221875 181.94983398 230.60546875 182.83154297 C241.60553746 237.9301014 227.99809849 298.75778432 197.06640625 345.23828125 C193.25610754 350.71708971 189.20911152 356.00789491 185.06640625 361.23828125 C184.61539551 361.80788574 184.16438477 362.37749023 183.69970703 362.96435547 C172.39961193 377.08004712 159.61236088 389.51305855 145.06640625 400.23828125 C144.21828369 400.87757568 144.21828369 400.87757568 143.35302734 401.52978516 C134.98477331 407.83639919 126.30824855 413.25477725 117.05908203 418.17675781 C115.76948209 418.86374391 114.48369463 419.5579559 113.20263672 420.26074219 C94.51100199 430.49794528 73.94560719 437.20378962 53.06640625 441.23828125 C52.27459961 441.40054199 51.48279297 441.56280273 50.66699219 441.72998047 C22.85784798 447.23612284 -8.30767657 446.08333362 -35.93359375 440.23828125 C-36.79597656 440.0563623 -37.65835938 439.87444336 -38.546875 439.68701172 C-57.53175637 435.50510576 -75.86674914 428.49361046 -92.93359375 419.23828125 C-93.5795752 418.89716309 -94.22555664 418.55604492 -94.89111328 418.20458984 C-121.81007904 403.97987424 -146.56266628 383.60787891 -164.93359375 359.23828125 C-165.32853027 358.71443848 -165.7234668 358.1905957 -166.13037109 357.65087891 C-176.31091445 344.04109989 -184.68996306 329.60031989 -191.93359375 314.23828125 C-192.71863281 312.58119141 -192.71863281 312.58119141 -193.51953125 310.890625 C-204.27179272 287.02515575 -210.99356229 260.14616037 -211.13671875 233.91015625 C-211.14373306 233.04712387 -211.15074738 232.18409149 -211.15797424 231.29490662 C-211.17538126 228.52597782 -211.18182619 225.75726275 -211.18359375 222.98828125 C-211.18426849 222.04320709 -211.18494324 221.09813293 -211.18563843 220.12442017 C-211.17026119 206.59403538 -210.8086005 193.50556662 -207.93359375 180.23828125 C-207.77262207 179.42375488 -207.61165039 178.60922852 -207.44580078 177.77001953 C-200.69079914 143.76140894 -185.86500233 111.15580495 -163.93359375 84.23828125 C-163.50288574 83.70750977 -163.07217773 83.17673828 -162.62841797 82.62988281 C-151.72343124 69.28577436 -139.72023193 56.63128542 -125.93359375 46.23828125 C-125.40975098 45.84334473 -124.8859082 45.4484082 -124.34619141 45.04150391 C-88.93864978 18.55554757 -44.62279764 0.4404018 0 0 Z " fill="#6249FF" transform="translate(210.93359375,33.76171875)"/>
<path d="M0 0 C1.11117188 -0.01417969 2.22234375 -0.02835938 3.3671875 -0.04296875 C6.125 0.1875 6.125 0.1875 8.125 2.1875 C8.95646337 7.25942656 8.95646337 7.25942656 8.125 10.1875 C6.6105957 11.53637695 6.6105957 11.53637695 4.61328125 12.67578125 C3.88399414 13.09722412 3.15470703 13.51866699 2.40332031 13.95288086 C-1.14366411 15.87498762 -4.71613362 17.73467857 -8.3125 19.5625 C-42.44649024 37.29492799 -74.36590413 59.56781017 -103.875 84.1875 C-104.46539062 84.67879395 -105.05578125 85.17008789 -105.6640625 85.67626953 C-112.00335207 90.96197201 -118.25157002 96.33807957 -124.35180664 101.8996582 C-125.89709562 103.30080992 -127.45011707 104.69356367 -129.01611328 106.0715332 C-136.16334606 112.3819902 -142.90638307 119.0662005 -149.63500977 125.81713867 C-151.56609547 127.75360549 -153.50249882 129.68463956 -155.43945312 131.61523438 C-161.46323438 137.63543483 -167.39885561 143.65719544 -172.875 150.1875 C-173.84728872 151.30614087 -174.82122379 152.4233531 -175.796875 153.5390625 C-182.24953682 160.98842209 -188.48647002 168.57118679 -194.49072266 176.38671875 C-195.41154482 177.58459958 -196.33569099 178.77993273 -197.26318359 179.97265625 C-225.72510292 216.61601711 -249.98996959 258.25910152 -266.49072266 301.66162109 C-269.21617046 308.56177211 -269.21617046 308.56177211 -272.28515625 311.4765625 C-275.86487234 312.45922966 -277.60214494 311.8798929 -280.875 310.1875 C-282.38671875 308.2109375 -282.38671875 308.2109375 -283.5625 305.5625 C-284.06007813 304.48355469 -284.55765625 303.40460938 -285.0703125 302.29296875 C-285.67350626 300.9251974 -286.27487881 299.55662225 -286.875 298.1875 C-294.05634829 281.98749743 -301.78506644 266.40907209 -310.875 251.1875 C-311.3817627 250.33784668 -311.88852539 249.48819336 -312.41064453 248.61279297 C-321.47967323 233.5430263 -331.62569233 219.36724075 -343.68359375 206.53515625 C-345.64501872 204.43387924 -347.48040892 202.27573532 -349.3125 200.0625 C-355.549059 192.92671621 -363.35978991 187.49528456 -371.0625 182.0625 C-387.8909914 170.16873026 -387.8909914 170.16873026 -389.875 163.1875 C-391.19013606 152.07734015 -389.48003732 142.31982217 -382.5 133.4375 C-374.40419415 124.99299839 -362.20652477 120.35866066 -350.6875 119.8125 C-332.22099347 120.29578323 -318.42434327 131.9207996 -305.875 144.1875 C-304.92753906 145.05955078 -304.92753906 145.05955078 -303.9609375 145.94921875 C-293.36026176 155.92189237 -283.43285578 169.44814424 -276.21875 182.08984375 C-275.7753125 182.78207031 -275.331875 183.47429687 -274.875 184.1875 C-274.215 184.1875 -273.555 184.1875 -272.875 184.1875 C-271.53556736 182.42508863 -270.2815162 180.59774812 -269.0625 178.75 C-259.0339435 163.8450579 -247.63803838 149.9161198 -236 136.25 C-235.55454834 135.72510986 -235.10909668 135.20021973 -234.65014648 134.65942383 C-225.85021348 124.39360685 -216.52278839 114.6702344 -206.94897461 105.13110352 C-205.17508997 103.36262781 -203.40668223 101.58879956 -201.63867188 99.81445312 C-195.88854812 94.06030901 -190.11932728 88.41072102 -183.875 83.1875 C-183.24408447 82.64988037 -182.61316895 82.11226074 -181.96313477 81.55834961 C-133.13339953 40.10581248 -66.06589391 0.38862291 0 0 Z " fill="#6249FF" transform="translate(503.875,58.8125)"/>
</svg>
