<?xml version="1.0" encoding="UTF-8"?>
<svg version="1.1" xmlns="http://www.w3.org/2000/svg" width="512" height="512">
<path d="M0 0 C0.58104492 0.48243164 1.16208984 0.96486328 1.76074219 1.46191406 C5.53734584 4.60676603 9.27923537 7.7893402 13 11 C16.86920056 9.37475108 19.71263587 6.74825044 22.8125 4 C53.01978748 -21.96099126 92.44497305 -34.60669981 132.15234375 -31.7265625 C173.21040215 -28.16690804 209.17455297 -9.28984772 236.21484375 21.6015625 C264.39771778 55.18073106 272.95564814 96.75825259 269.73193359 139.55908203 C267.20383255 162.72678589 259.32800878 185.22393744 249 206 C248.37569092 207.27302979 248.37569092 207.27302979 247.73876953 208.57177734 C241.09707857 222.02263887 233.45944902 234.62025201 225 247 C224.5580127 247.65049316 224.11602539 248.30098633 223.66064453 248.97119141 C216.97959593 258.74623597 209.58533171 267.91633116 202 277 C201.49710449 277.60344238 200.99420898 278.20688477 200.47607422 278.82861328 C188.71372666 292.88832467 176.06210665 306.02663451 163.125 319 C162.58493317 319.54274567 162.04486633 320.08549133 161.48843384 320.64468384 C155.50473245 326.6508936 149.44856916 332.48920075 143 338 C141.22429779 339.61967817 139.45291693 341.24411718 137.6875 342.875 C132.81067418 347.31818194 127.78485299 351.51848437 122.65039062 355.65869141 C120.751612 357.20187037 118.86744261 358.76190797 116.984375 360.32421875 C108.99758853 366.94864393 100.97044094 373.47862502 92.68505859 379.72851562 C90.86608345 381.10104859 89.05231673 382.48032138 87.23828125 383.859375 C78.42729751 390.53522184 69.47760606 396.9898574 60.41210938 403.31494141 C57.77613361 405.15638925 55.14593893 407.00594371 52.515625 408.85546875 C47.66326625 412.26084847 42.79330722 415.63959691 37.90869141 418.99853516 C35.9703855 420.33227964 34.03515122 421.67049916 32.10302734 423.01318359 C29.3731014 424.90334885 26.62722102 426.76749935 23.875 428.625 C23.05217529 429.19984131 22.22935059 429.77468262 21.3815918 430.36694336 C20.22977417 431.13276733 20.22977417 431.13276733 19.0546875 431.9140625 C18.38937012 432.3673291 17.72405273 432.8205957 17.03857422 433.28759766 C15 434 15 434 12.60229492 433.35791016 C9.70571716 431.84643952 7.02430237 430.17745632 4.30859375 428.359375 C3.77065186 428.00072861 3.23270996 427.64208221 2.6784668 427.27256775 C0.92812212 426.10330198 -0.81736395 424.9270228 -2.5625 423.75 C-3.78173529 422.93192177 -5.0010558 422.11397052 -6.22045898 421.29614258 C-16.5780182 414.33596363 -26.83378702 407.23692861 -37 400 C-38.14106201 399.19103271 -38.14106201 399.19103271 -39.30517578 398.36572266 C-55.77610549 386.67294125 -71.62417472 374.24033627 -87.24267578 361.43701172 C-88.85341883 360.1198634 -90.47128566 358.81143927 -92.08984375 357.50390625 C-97.42878533 353.18333221 -102.60159916 348.72987209 -107.6796875 344.10546875 C-109.70154184 342.27082315 -111.74678522 340.47231214 -113.8125 338.6875 C-123.7973988 329.96777015 -133.35120878 320.81489372 -142.70458984 311.42578125 C-144.39175958 309.73318653 -146.08430196 308.04609403 -147.77734375 306.359375 C-153.40052063 300.73953443 -158.83862407 295.05196629 -164 289 C-165.37204591 287.51809276 -166.74663049 286.03852727 -168.125 284.5625 C-174.00751562 278.04756376 -179.22048149 271.02309826 -184.48681641 264.00976562 C-185.80861646 262.25418995 -187.14080491 260.50757534 -188.48046875 258.765625 C-214.14395154 225.15327586 -234.5371245 186.12076376 -241 144 C-241.1743457 142.92371338 -241.34869141 141.84742676 -241.52832031 140.73852539 C-242.02071152 136.83584084 -242.17826277 133.00065661 -242.203125 129.07421875 C-242.21013931 128.3333754 -242.21715363 127.59253204 -242.22438049 126.82923889 C-242.24180997 124.44859696 -242.24823337 122.06820341 -242.25 119.6875 C-242.25067474 118.87631714 -242.25134949 118.06513428 -242.25204468 117.22937012 C-242.2285646 99.50651919 -239.99799763 83.73593831 -234 67 C-233.77441406 66.36465332 -233.54882812 65.72930664 -233.31640625 65.07470703 C-222.87212727 36.15379045 -201.99262535 9.57122963 -176 -7 C-174.37191406 -8.06154297 -174.37191406 -8.06154297 -172.7109375 -9.14453125 C-120.76950343 -42.19688096 -47.86784649 -39.78118033 0 0 Z M-184 44 C-186.65929032 47.18639966 -188.87779003 50.43716575 -191 54 C-191.52086182 54.84353027 -191.52086182 54.84353027 -192.05224609 55.70410156 C-200.77099475 69.89016259 -206.17943719 84.56074957 -209 101 C-209.19722656 102.12341797 -209.19722656 102.12341797 -209.3984375 103.26953125 C-216.34791627 152.385442 -190.4201929 201.23632564 -162.14599609 239.28588867 C-157.44039512 245.5251333 -152.51720315 251.53411913 -147.37402344 257.41552734 C-145.91120255 259.10239792 -144.47345308 260.80843488 -143.0390625 262.51953125 C-137.43939588 269.17764395 -131.66334078 275.47826797 -125.44140625 281.55859375 C-123.38214834 283.61785166 -121.49029295 285.7055647 -119.625 287.9375 C-115.51151305 292.76637599 -110.76614294 296.91137347 -106.08203125 301.171875 C-103.71840267 303.32567198 -101.42596365 305.52772331 -99.1875 307.8125 C-95.63257959 311.4191911 -91.84444079 314.70655398 -88 318 C-87.00226563 318.86367188 -86.00453125 319.72734375 -84.9765625 320.6171875 C-65.64167442 337.32296097 -45.62675856 352.92771801 -25 368 C-24.23993652 368.55623047 -23.47987305 369.11246094 -22.69677734 369.68554688 C-18.26238187 372.92632601 -13.81102348 376.14179638 -9.33837891 379.32958984 C-7.70432042 380.49687197 -6.07408358 381.66951425 -4.44677734 382.84619141 C-1.87097184 384.70455043 0.71877072 386.54176851 3.3125 388.375 C4.10720703 388.9532251 4.90191406 389.5314502 5.72070312 390.12719727 C6.46900391 390.64983154 7.21730469 391.17246582 7.98828125 391.7109375 C8.64352783 392.17806152 9.29877441 392.64518555 9.97387695 393.12646484 C12.70388648 394.303471 14.19687375 393.86987788 17 393 C19.33836948 391.62635192 21.52968934 390.23006877 23.75 388.6875 C24.40194336 388.2430957 25.05388672 387.79869141 25.72558594 387.34082031 C27.82432168 385.90410857 29.91307612 384.45380672 32 383 C32.67675781 382.53094238 33.35351562 382.06188477 34.05078125 381.57861328 C50.40307739 370.22502334 66.47791546 358.46750328 82 346 C82.95253662 345.23671387 82.95253662 345.23671387 83.92431641 344.45800781 C96.16046689 334.63684775 108.15592101 324.56437928 119.76953125 314.01171875 C121.84188166 312.14261111 123.94519825 310.3178013 126.0625 308.5 C129.82283914 305.23145571 133.29823448 301.72019122 136.79296875 298.171875 C138.73632275 296.25947708 140.7227379 294.49795836 142.8125 292.75 C148.11185575 288.19422974 152.68882001 282.94497719 157.375 277.77783203 C159.01645048 275.98200235 160.67628497 274.20527535 162.34375 272.43359375 C168.85999367 265.50800727 175.12980028 258.49056889 181 251 C181.47904785 250.39349609 181.9580957 249.78699219 182.45166016 249.16210938 C209.58437688 214.7202055 236.37597361 172.26973568 238 127 C238.0515625 125.77667969 238.103125 124.55335938 238.15625 123.29296875 C239.01457402 93.09492167 229.09285199 62.53671314 208.18383789 40.34545898 C206.79338621 38.89297795 205.39678743 37.44638926 204 36 C203.2575 35.19433594 202.515 34.38867188 201.75 33.55859375 C182.77770625 13.50515826 154.01958966 1.89293394 126.67578125 0.71875 C94.10163896 -0.09995381 64.46497683 10.48283055 40.4140625 32.6640625 C39.61742187 33.43492188 38.82078125 34.20578125 38 35 C37.4630249 35.50998535 36.9260498 36.0199707 36.37280273 36.54541016 C32.02609389 40.75761075 28.36719873 45.23440018 24.8125 50.125 C23.79887504 51.5031178 22.78456733 52.88073372 21.76953125 54.2578125 C21.29854004 54.90137695 20.82754883 55.54494141 20.34228516 56.20800781 C19.15263848 57.79622291 17.89884908 59.33594178 16.63671875 60.8671875 C14.79706749 62.81636769 14.79706749 62.81636769 15 65 C14.34 65 13.68 65 13 65 C12.63068359 64.18208984 12.63068359 64.18208984 12.25390625 63.34765625 C-2.0274284 36.60908266 -28.43593866 15.17641142 -57.10571289 5.94946289 C-104.88555395 -8.47206134 -151.14114203 7.76650429 -184 44 Z " fill="#6249FF" transform="translate(242,55)"/>
</svg>
