<?xml version="1.0" encoding="UTF-8"?>
<svg version="1.1" xmlns="http://www.w3.org/2000/svg" width="512" height="512">
<path d="M0 0 C0.96164062 0.81984375 1.92328125 1.6396875 2.9140625 2.484375 C3.85507812 3.26296875 4.79609375 4.0415625 5.765625 4.84375 C30.18041488 25.88861114 45.09161081 57.59370581 47.9140625 89.484375 C50.0694164 123.807605 40.38433237 157.1277377 17.9140625 183.484375 C17.13546875 184.42539062 16.356875 185.36640625 15.5546875 186.3359375 C-3.24403308 208.14491072 -31.63005943 223.23575432 -60.0859375 227.484375 C-60.7871875 227.59523438 -61.4884375 227.70609375 -62.2109375 227.8203125 C-95.07301381 232.04217647 -130.54869433 223.93240427 -156.9609375 203.546875 C-159.03339807 201.8917717 -161.05849702 200.19602305 -163.0859375 198.484375 C-164.02953125 197.70449219 -164.973125 196.92460937 -165.9453125 196.12109375 C-190.36970779 175.04297861 -205.26068664 143.40667185 -208.0859375 111.484375 C-210.2412914 77.161145 -200.55620737 43.8410123 -178.0859375 17.484375 C-177.30734375 16.54335937 -176.52875 15.60234375 -175.7265625 14.6328125 C-132.26546609 -35.78774053 -51.23149808 -41.76339844 0 0 Z M-154.59912109 37.734375 C-158.7181867 42.58256257 -161.94382883 47.9724827 -165.0859375 53.484375 C-165.82070312 54.74314453 -165.82070312 54.74314453 -166.5703125 56.02734375 C-178.88192108 78.71262253 -179.80038223 105.01909937 -173.0859375 129.484375 C-168.54611038 144.64396734 -160.03179023 157.2026387 -149.0859375 168.484375 C-148.47492188 169.16886719 -147.86390625 169.85335937 -147.234375 170.55859375 C-141.42551303 176.84946767 -134.40672921 181.18240256 -127.0859375 185.484375 C-125.64927734 186.33902344 -125.64927734 186.33902344 -124.18359375 187.2109375 C-101.86752141 199.41748478 -75.15842399 200.09101956 -51.0859375 193.484375 C-35.92634516 188.94454788 -23.3676738 180.43022773 -12.0859375 169.484375 C-11.40144531 168.87335938 -10.71695313 168.26234375 -10.01171875 167.6328125 C-3.72084483 161.82395053 0.61209006 154.80516671 4.9140625 147.484375 C5.48382813 146.52660156 6.05359375 145.56882812 6.640625 144.58203125 C18.91787413 122.13670143 19.33711681 95.68780481 12.9140625 71.484375 C8.27829862 55.66823941 -0.6510378 43.05979574 -12.0859375 31.484375 C-12.95798828 30.50404297 -12.95798828 30.50404297 -13.84765625 29.50390625 C-19.25655487 23.55003044 -26.22177001 19.54413849 -33.0859375 15.484375 C-34.045 14.91332031 -35.0040625 14.34226562 -35.9921875 13.75390625 C-75.99709678 -8.10270851 -125.0526788 5.26372971 -154.59912109 37.734375 Z " fill="#FFFFFF" transform="translate(336.0859375,155.515625)"/>
<path d="M0 0 C0.72703125 -0.03738281 1.4540625 -0.07476562 2.203125 -0.11328125 C9.66367818 1.13395847 14.88145277 6.98955421 19.984375 12.11328125 C20.74421692 12.86788132 21.50405884 13.62248138 22.28692627 14.39994812 C23.88401678 15.99064131 25.47727836 17.58518711 27.06689453 19.18334961 C29.494121 21.61910036 31.93944266 24.03558607 34.38671875 26.45117188 C35.94123546 28.00407669 37.49465865 29.55807709 39.046875 31.11328125 C39.77501404 31.83018631 40.50315308 32.54709137 41.25335693 33.28572083 C46.29487703 38.39700614 49.35297973 42.54080747 50.125 49.875 C49.54289319 55.21097912 47.77172701 58.63350068 43.75 62.125 C39.31831489 65.35643706 36.16298966 65.75618768 30.75 65.3125 C23.98766824 62.98357891 19.34463178 58.48064546 14.41796875 53.4765625 C13.65954178 52.71959076 12.90111481 51.96261902 12.1197052 51.18270874 C10.52751649 49.58886805 8.94023845 47.99010813 7.35766602 46.38671875 C4.93967422 43.93970032 2.50348765 41.51196318 0.06445312 39.0859375 C-1.48549136 37.52975692 -3.03435722 35.97250114 -4.58203125 34.4140625 C-5.30703323 33.69199615 -6.03203522 32.96992981 -6.77900696 32.22598267 C-10.94740125 27.97922118 -14.61435364 24.05159622 -15.6484375 17.96875 C-15.59469987 13.02488781 -15.09571167 9.53200352 -12.25 5.3125 C-8.36860294 1.72220772 -5.27004742 0.17505402 0 0 Z " fill="#FFFFFF" transform="translate(392.25,376.6875)"/>
<path d="M0 0 C3.9323173 2.65202795 6.18648186 5.30944559 7.6875 9.8125 C7.92578125 11.828125 7.92578125 11.828125 8 14.0625 C8.05607422 15.15304687 8.05607422 15.15304687 8.11328125 16.265625 C6.86604153 23.72617818 1.01044579 28.94395277 -4.11328125 34.046875 C-4.86788132 34.80671692 -5.62248138 35.56655884 -6.39994812 36.34942627 C-7.99064131 37.94651678 -9.58518711 39.53977836 -11.18334961 41.12939453 C-13.61910036 43.556621 -16.03558607 46.00194266 -18.45117188 48.44921875 C-20.00407669 50.00373546 -21.55807709 51.55715865 -23.11328125 53.109375 C-23.83018631 53.83751404 -24.54709137 54.56565308 -25.28572083 55.31585693 C-30.39700614 60.35737703 -34.54080747 63.41547973 -41.875 64.1875 C-47.21097912 63.60539319 -50.63350068 61.83422701 -54.125 57.8125 C-57.35643706 53.38081489 -57.75618768 50.22548966 -57.3125 44.8125 C-54.98357891 38.05016824 -50.48064546 33.40713178 -45.4765625 28.48046875 C-44.71959076 27.72204178 -43.96261902 26.96361481 -43.18270874 26.1822052 C-41.58886805 24.59001649 -39.99010813 23.00273845 -38.38671875 21.42016602 C-35.93970032 19.00217422 -33.51196318 16.56598765 -31.0859375 14.12695312 C-29.52975692 12.57700864 -27.97250114 11.02814278 -26.4140625 9.48046875 C-25.33096298 8.39296577 -25.33096298 8.39296577 -24.22598267 7.28349304 C-16.92466824 0.1169127 -10.11065708 -3.62457518 0 0 Z " fill="#FFFFFF" transform="translate(127.3125,378.1875)"/>
<path d="M0 0 C4.28590933 2.79515826 7.22425239 5.92275717 8.875 10.875 C9.55193373 17.77972403 7.54265942 22.62644396 3.20123291 27.91323853 C1.19499037 30.06454445 -0.86475341 32.14327797 -2.9609375 34.20703125 C-3.71790924 34.96545822 -4.47488098 35.72388519 -5.25479126 36.5052948 C-6.84863195 38.09748351 -8.44739187 39.68476155 -10.05078125 41.26733398 C-12.49779968 43.68532578 -14.92553682 46.12151235 -17.3515625 48.56054688 C-18.90774308 50.11049136 -20.46499886 51.65935722 -22.0234375 53.20703125 C-22.74550385 53.93203323 -23.46757019 54.65703522 -24.21151733 55.40400696 C-28.45827882 59.57240125 -32.38590378 63.23935364 -38.46875 64.2734375 C-43.41261219 64.21969987 -46.90549648 63.72071167 -51.125 60.875 C-54.71529228 56.99360294 -56.26244598 53.89504742 -56.4375 48.625 C-56.49357422 47.53445312 -56.49357422 47.53445312 -56.55078125 46.421875 C-55.30354153 38.96132182 -49.44794579 33.74354723 -44.32421875 28.640625 C-43.56961868 27.88078308 -42.81501862 27.12094116 -42.03755188 26.33807373 C-40.44685869 24.74098322 -38.85231289 23.14772164 -37.25415039 21.55810547 C-34.81839964 19.130879 -32.40191393 16.68555734 -29.98632812 14.23828125 C-28.43342331 12.68376454 -26.87942291 11.13034135 -25.32421875 9.578125 C-24.60731369 8.84998596 -23.89040863 8.12184692 -23.15177917 7.37164307 C-16.43857578 0.75006987 -9.66892347 -3.48081245 0 0 Z " fill="#FFFFFF" transform="translate(433.125,71.125)"/>
<path d="M0 0 C5.0018817 2.61421887 8.68358441 6.31346249 12.61450195 10.30615234 C13.37292892 11.06312408 14.1313559 11.82009583 14.9127655 12.6000061 C16.50495421 14.19384679 18.09223226 15.79260671 19.67480469 17.39599609 C22.09279648 19.84301452 24.52898306 22.27075166 26.96801758 24.69677734 C28.51796206 26.25295792 30.06682792 27.8102137 31.61450195 29.36865234 C32.70200493 30.45175186 32.70200493 30.45175186 33.81147766 31.55673218 C37.97987196 35.80349367 41.64682435 39.73111863 42.6809082 45.81396484 C42.62717057 50.75782703 42.12818238 54.25071133 39.2824707 58.47021484 C35.40107364 62.06050712 32.30251812 63.60766082 27.0324707 63.78271484 C26.30543945 63.82009766 25.5784082 63.85748047 24.8293457 63.89599609 C17.36879252 62.64875637 12.15101794 56.79316063 7.0480957 51.66943359 C6.28825378 50.91483353 5.52841187 50.16023346 4.74554443 49.38276672 C3.14845392 47.79207353 1.55519234 46.19752773 -0.03442383 44.59936523 C-2.4616503 42.16361449 -4.90697195 39.74712878 -7.35424805 37.33154297 C-8.90876476 35.77863816 -10.46218795 34.22463775 -12.0144043 32.66943359 C-12.74254333 31.95252853 -13.47068237 31.23562347 -14.22088623 30.49699402 C-19.26240632 25.38570871 -22.32050903 21.24190737 -23.0925293 13.90771484 C-22.51042248 8.57173572 -20.73925631 5.14921416 -16.7175293 1.65771484 C-11.4254425 -2.20109844 -5.97397443 -2.84676361 0 0 Z " fill="#FFFFFF" transform="translate(92.717529296875,71.52978515625)"/>
<path d="M0 0 C3.46573176 2.97062723 5.38599566 5.49992609 6.01268005 10.08872986 C6.01808304 11.12542313 6.02348602 12.16211639 6.02905273 13.23022461 C6.04173691 14.41172592 6.05442108 15.59322723 6.06748962 16.81053162 C6.06455399 18.07832962 6.06161835 19.34612762 6.05859375 20.65234375 C6.0638356 21.96280167 6.06907745 23.27325958 6.07447815 24.62342834 C6.08339583 27.39317473 6.08100198 30.16263258 6.07104492 32.93237305 C6.05955944 36.47102088 6.07976528 40.00867015 6.10896206 43.54718685 C6.13178663 46.93645777 6.12485479 50.32549791 6.12109375 53.71484375 C6.13232773 54.98061752 6.14356171 56.2463913 6.15513611 57.55052185 C6.06852648 68.48783466 6.06852648 68.48783466 1.625 73.25 C-3.59759857 77.30630398 -9.02840142 77.02397544 -15.375 76.25 C-19.98902006 74.06441155 -22.10854701 71.75552466 -24.375 67.25 C-24.76268005 64.41127014 -24.76268005 64.41127014 -24.77905273 61.26977539 C-24.79173691 60.08827408 -24.80442108 58.90677277 -24.81748962 57.68946838 C-24.81455399 56.42167038 -24.81161835 55.15387238 -24.80859375 53.84765625 C-24.8138356 52.53719833 -24.81907745 51.22674042 -24.82447815 49.87657166 C-24.83339583 47.10682527 -24.83100198 44.33736742 -24.82104492 41.56762695 C-24.80955944 38.02897912 -24.82976528 34.49132985 -24.85896206 30.95281315 C-24.88178663 27.56354223 -24.87485479 24.17450209 -24.87109375 20.78515625 C-24.88232773 19.51938248 -24.89356171 18.2536087 -24.90513611 16.94947815 C-24.81878514 6.04482958 -24.81878514 6.04482958 -20.375 1.25 C-14.00404984 -3.97499767 -7.04907965 -3.65507834 0 0 Z " fill="#FFFFFF" transform="translate(265.375,435.75)"/>
<path d="M0 0 C1.18150131 -0.01268417 2.36300262 -0.02536835 3.58030701 -0.03843689 C4.84810501 -0.03550125 6.11590302 -0.03256561 7.42211914 -0.02954102 C8.73257706 -0.03478287 10.04303497 -0.04002472 11.39320374 -0.04542542 C14.16295012 -0.05434309 16.93240797 -0.05194925 19.70214844 -0.04199219 C23.24079627 -0.0305067 26.77844555 -0.05071255 30.31696224 -0.07990932 C33.70623316 -0.1027339 37.0952733 -0.09580205 40.48461914 -0.09204102 C41.75039291 -0.10327499 43.01616669 -0.11450897 44.32029724 -0.12608337 C55.25761005 -0.03947375 55.25761005 -0.03947375 60.01977539 4.40405273 C64.07607937 9.62665131 63.79375083 15.05745416 63.01977539 21.40405273 C60.83418694 26.01807279 58.52530005 28.13759975 54.01977539 30.40405273 C51.18104553 30.79173279 51.18104553 30.79173279 48.03955078 30.80810547 C46.85804947 30.82078964 45.67654816 30.83347382 44.45924377 30.84654236 C43.19144577 30.84360672 41.92364777 30.84067108 40.61743164 30.83764648 C39.30697372 30.84288834 37.99651581 30.84813019 36.64634705 30.85353088 C33.87660066 30.86244856 31.10714281 30.86005471 28.33740234 30.85009766 C24.79875451 30.83861217 21.26110524 30.85881802 17.72258854 30.88801479 C14.33331762 30.91083937 10.94427748 30.90390752 7.55493164 30.90014648 C5.65627098 30.91699745 5.65627098 30.91699745 3.71925354 30.93418884 C-7.18539503 30.84783788 -7.18539503 30.84783788 -11.98022461 26.40405273 C-15.09540202 22.60565103 -16.31806932 18.66544084 -15.98022461 13.77905273 C-15.08703501 8.59855308 -13.02873844 4.88500961 -8.71336365 1.76524353 C-5.56233834 0.19593199 -3.50636606 0.0182743 0 0 Z " fill="#FFFFFF" transform="translate(448.980224609375,240.595947265625)"/>
<path d="M0 0 C1.18150131 -0.01268417 2.36300262 -0.02536835 3.58030701 -0.03843689 C4.84810501 -0.03550125 6.11590302 -0.03256561 7.42211914 -0.02954102 C8.73257706 -0.03478287 10.04303497 -0.04002472 11.39320374 -0.04542542 C14.16295012 -0.05434309 16.93240797 -0.05194925 19.70214844 -0.04199219 C23.24079627 -0.0305067 26.77844555 -0.05071255 30.31696224 -0.07990932 C33.70623316 -0.1027339 37.0952733 -0.09580205 40.48461914 -0.09204102 C41.75039291 -0.10327499 43.01616669 -0.11450897 44.32029724 -0.12608337 C55.22494581 -0.03973241 55.22494581 -0.03973241 60.01977539 4.40405273 C63.13495281 8.20245444 64.3576201 12.14266463 64.01977539 17.02905273 C63.1265858 22.20955239 61.06828922 25.92309586 56.75291443 29.04286194 C53.60188912 30.61217348 51.54591684 30.78983117 48.03955078 30.80810547 C46.85804947 30.82078964 45.67654816 30.83347382 44.45924377 30.84654236 C43.19144577 30.84360672 41.92364777 30.84067108 40.61743164 30.83764648 C39.30697372 30.84288834 37.99651581 30.84813019 36.64634705 30.85353088 C33.87660066 30.86244856 31.10714281 30.86005471 28.33740234 30.85009766 C24.79875451 30.83861217 21.26110524 30.85881802 17.72258854 30.88801479 C14.33331762 30.91083937 10.94427748 30.90390752 7.55493164 30.90014648 C5.65627098 30.91699745 5.65627098 30.91699745 3.71925354 30.93418884 C-7.21805927 30.84757922 -7.21805927 30.84757922 -11.98022461 26.40405273 C-16.03652859 21.18145416 -15.75420005 15.75065131 -14.98022461 9.40405273 C-11.78705534 2.66291762 -7.35661448 0.03834082 0 0 Z " fill="#FFFFFF" transform="translate(14.980224609375,240.595947265625)"/>
<path d="M0 0 C4.61402006 2.18558845 6.73354701 4.49447534 9 9 C9.38768005 11.83872986 9.38768005 11.83872986 9.40405273 14.98022461 C9.41673691 16.16172592 9.42942108 17.34322723 9.44248962 18.56053162 C9.43955399 19.82832962 9.43661835 21.09612762 9.43359375 22.40234375 C9.4388356 23.71280167 9.44407745 25.02325958 9.44947815 26.37342834 C9.45839583 29.14317473 9.45600198 31.91263258 9.44604492 34.68237305 C9.43455944 38.22102088 9.45476528 41.75867015 9.48396206 45.29718685 C9.50678663 48.68645777 9.49985479 52.07549791 9.49609375 55.46484375 C9.50732773 56.73061752 9.51856171 57.9963913 9.53013611 59.30052185 C9.44378514 70.20517042 9.44378514 70.20517042 5 75 C1.2015983 78.11517742 -2.7386119 79.33784471 -7.625 79 C-12.80549965 78.1068104 -16.51904313 76.04851383 -19.6388092 71.73313904 C-21.20812075 68.58211373 -21.38577844 66.52614145 -21.40405273 63.01977539 C-21.41673691 61.83827408 -21.42942108 60.65677277 -21.44248962 59.43946838 C-21.43955399 58.17167038 -21.43661835 56.90387238 -21.43359375 55.59765625 C-21.4388356 54.28719833 -21.44407745 52.97674042 -21.44947815 51.62657166 C-21.45839583 48.85682527 -21.45600198 46.08736742 -21.44604492 43.31762695 C-21.43455944 39.77897912 -21.45476528 36.24132985 -21.48396206 32.70281315 C-21.50678663 29.31354223 -21.49985479 25.92450209 -21.49609375 22.53515625 C-21.50732773 21.26938248 -21.51856171 20.0036087 -21.53013611 18.69947815 C-21.44352648 7.76216534 -21.44352648 7.76216534 -17 3 C-11.77740143 -1.05630398 -6.34659858 -0.77397544 0 0 Z " fill="#FFFFFF" transform="translate(262,0)"/>
</svg>
