<?xml version="1.0" encoding="UTF-8"?>
<svg version="1.1" xmlns="http://www.w3.org/2000/svg" width="512" height="512">
<path d="M0 0 C9.65219075 6.92402235 16.19697296 16.47877065 18.3125 28.3125 C18.38081987 30.7282906 18.39737642 33.14584713 18.375 35.5625 C18.36597656 36.82578125 18.35695313 38.0890625 18.34765625 39.390625 C18.33025391 40.83695313 18.33025391 40.83695313 18.3125 42.3125 C18.83714844 42.43625 19.36179687 42.56 19.90234375 42.6875 C49.22434062 50.49368885 75.26023427 71.91532962 93 95.875 C93.46398193 96.50035645 93.92796387 97.12571289 94.40600586 97.77001953 C102.3125 108.61101474 102.3125 108.61101474 102.3125 112.3125 C102.90416962 112.30361755 103.49583923 112.29473511 104.10543823 112.2855835 C110.30294057 112.19660317 116.50025936 112.13655687 122.69824219 112.09277344 C125.00658549 112.07274583 127.31487862 112.04551561 129.62304688 112.01074219 C132.95455357 111.96183406 136.28538538 111.93944189 139.6171875 111.921875 C141.147491 111.89090729 141.147491 111.89090729 142.70870972 111.85931396 C150.65895176 111.85686364 157.56525278 113.3917693 163.93359375 118.35546875 C164.83271484 119.41701172 164.83271484 119.41701172 165.75 120.5 C166.36746094 121.19480469 166.98492187 121.88960937 167.62109375 122.60546875 C172.71090847 130.75152325 172.74452897 139.02397335 172.70068359 148.41015625 C172.70475589 149.81558641 172.71010145 151.22101336 172.71661377 152.62643433 C172.73021509 156.41985397 172.7250187 160.21302706 172.71547651 164.00645065 C172.70784244 167.99006529 172.71493588 171.97365986 172.71963501 175.95727539 C172.7250817 182.64505779 172.71792957 189.33274056 172.70361328 196.02050781 C172.68728883 203.7351114 172.69257811 211.44947707 172.7090925 219.1640749 C172.72273843 225.80640088 172.72461188 232.44865554 172.71677649 239.09099102 C172.712117 243.04996829 172.71142735 247.008834 172.72138596 250.96780396 C172.73009877 254.69110285 172.72395575 258.41409718 172.70670319 262.13736343 C172.70089178 264.14299357 172.70971692 266.14864968 172.71908569 268.15426636 C172.65331775 277.56918294 171.56858591 285.90397721 165.3125 293.3125 C155.78139891 301.02991583 147.28280781 301.61134264 135.3125 301.3125 C143.15977349 318.79013592 151.78880531 335.3099641 165.84521484 348.66943359 C174.3579296 356.78535821 180.27397843 365.71185659 180.60498047 377.79492188 C180.72844219 390.62289567 177.41809376 399.83937553 168.5 409.21875 C145.92315474 430.70316726 82.55529424 434.92353815 52.3125 434.3125 C52.29832031 434.93253906 52.28414063 435.55257813 52.26953125 436.19140625 C51.21457636 455.77935245 41.17810734 473.28085351 27.1953125 486.66796875 C9.09878257 502.47427394 -11.36708638 506.53241602 -34.80761719 505.51074219 C-53.02793813 504.25651189 -69.4008447 494.36357543 -81.6875 481.3125 C-82.42355469 480.53390625 -83.15960938 479.7553125 -83.91796875 478.953125 C-94.17268131 467.13144475 -101.94432743 450.13273182 -101.6875 434.3125 C-102.26153564 434.27809814 -102.83557129 434.24369629 -103.42700195 434.20825195 C-199.91113661 428.12791323 -199.91113661 428.12791323 -221 406 C-229.05644572 396.49917158 -230.42271598 386.36782654 -229.86669922 374.30419922 C-228.8719132 363.24770832 -222.12089003 355.62120275 -214.5 348.25 C-200.98657287 335.07169292 -191.92014903 318.60796508 -184.6875 301.3125 C-185.59371094 301.34730469 -186.49992187 301.38210938 -187.43359375 301.41796875 C-197.66044996 301.64523222 -205.49547696 300.82888197 -213.6875 294.3125 C-220.95455565 287.04544435 -222.02348063 279.14940379 -222.10519409 269.11302185 C-222.10069244 267.80680374 -222.0961908 266.50058563 -222.09155273 265.15478516 C-222.09726508 263.74274661 -222.10423267 262.33071268 -222.11235046 260.91868591 C-222.13020301 257.10655106 -222.12912835 253.29464739 -222.12340808 249.48248339 C-222.12030431 246.28940521 -222.12642192 243.09637068 -222.13244683 239.90329874 C-222.14646489 232.36453157 -222.14495387 224.8258778 -222.13354492 217.28710938 C-222.12207 209.53386968 -222.13613489 201.78097617 -222.1629414 194.02778208 C-222.18516095 187.34890308 -222.19172164 180.67013223 -222.18586498 173.99121892 C-222.18250867 170.01201226 -222.18482139 166.03302734 -222.20211601 162.05385208 C-222.21768306 158.30914299 -222.21352293 154.56494306 -222.19481087 150.82025337 C-222.18942016 148.80783906 -222.20356503 146.79540135 -222.21850586 144.78303528 C-222.1426964 135.36158448 -220.94340278 126.68897533 -214.5625 119.375 C-207.12315525 112.7755239 -198.58487691 111.72775426 -188.9921875 111.921875 C-187.91873077 111.92753479 -186.84527405 111.93319458 -185.73928833 111.93902588 C-182.34655125 111.96122589 -178.9549121 112.01139203 -175.5625 112.0625 C-173.2474112 112.08258613 -170.93230567 112.10083318 -168.6171875 112.1171875 C-162.97359048 112.16103669 -157.33062371 112.22778255 -151.6875 112.3125 C-151.40011963 111.39049805 -151.11273926 110.46849609 -150.81665039 109.51855469 C-149.48378346 105.73407716 -147.4783478 102.76394528 -145.125 99.5625 C-144.46334839 98.64887695 -144.46334839 98.64887695 -143.78833008 97.71679688 C-140.34011555 93.02964016 -136.61165096 88.67363119 -132.640625 84.41796875 C-131.04689276 82.69992539 -129.57291074 80.96384665 -128.125 79.125 C-113.17548108 61.87555509 -89.672364 48.17701913 -67.6875 42.3125 C-67.73390625 41.44109375 -67.7803125 40.5696875 -67.828125 39.671875 C-68.23907891 26.11039594 -64.99289344 15.1886273 -55.6875 5.15625 C-40.32345499 -9.54933594 -17.82502146 -10.84607238 0 0 Z M-45.50390625 21.421875 C-48.80070758 26.6880527 -49.84589344 31.10875684 -49.6875 37.3125 C-48.74132812 37.2403125 -47.79515625 37.168125 -46.8203125 37.09375 C-31.04375463 35.95819345 -15.45452232 36.10956642 0.3125 37.3125 C0.13068116 29.24635497 -1.50965023 23.73204356 -7.10546875 17.8125 C-13.40141563 12.14108405 -19.35765079 10.66447243 -27.62109375 10.90234375 C-35.0058206 11.89010976 -40.98592865 15.53442544 -45.50390625 21.421875 Z M-121.875 99.1875 C-125.45313107 103.48565438 -127.85022494 107.34726865 -130.6875 112.3125 C-60.7275 112.3125 9.2325 112.3125 81.3125 112.3125 C78.49812457 107.387343 76.62551661 104.24638439 72.9375 100.3125 C70.34074194 97.51761268 67.81676888 94.73100258 65.4375 91.75 C45.03395157 67.95512608 11.68864133 55.6003637 -18.77685547 53.14404297 C-57.87201778 50.86341231 -96.77646977 69.72120707 -121.875 99.1875 Z M-202.6875 134.3125 C-203.73099573 137.4429872 -203.81832147 139.63145687 -203.82794189 142.91659546 C-203.83365204 144.08306107 -203.83936218 145.24952667 -203.84524536 146.45133972 C-203.84636322 147.73245132 -203.84748108 149.01356293 -203.84863281 150.33349609 C-203.85326173 151.69526809 -203.85828649 153.05703879 -203.86367798 154.41880798 C-203.87679598 158.11926077 -203.88324564 161.81969542 -203.88768864 165.52016783 C-203.89062004 167.83202706 -203.89472496 170.14388133 -203.89919281 172.45573807 C-203.91286553 179.68896854 -203.92253356 186.92218769 -203.9263947 194.1554302 C-203.93087649 202.50541619 -203.94843083 210.85523857 -203.9773953 219.2051748 C-203.99900765 225.65961587 -204.00909872 232.11401089 -204.01043582 238.56848776 C-204.01148408 242.42349323 -204.0173963 246.27834485 -204.03525543 250.13331223 C-204.05172873 253.75963703 -204.05389539 257.38569221 -204.04511642 261.01204109 C-204.04397842 262.9755817 -204.05770113 264.93911333 -204.0718689 266.90260315 C-204.06629974 268.0747084 -204.06073059 269.24681366 -204.05499268 270.45443726 C-204.05645924 271.47096563 -204.0579258 272.48749401 -204.0594368 273.53482628 C-203.61676035 276.84079314 -202.70804322 278.66973055 -200.6875 281.3125 C-197.39633858 283.43814409 -194.70800165 283.56375162 -190.83689976 283.56697559 C-189.03214659 283.57572388 -189.03214659 283.57572388 -187.19093376 283.58464891 C-185.85414108 283.58101564 -184.5173489 283.57719126 -183.18055725 283.57319641 C-181.76173512 283.57621615 -180.34291461 283.58010474 -178.924097 283.58478898 C-175.02061813 283.59510062 -171.11723077 283.59287914 -167.21374428 283.58860838 C-163.00576219 283.5861469 -158.79780246 283.59514811 -154.58982849 283.60264587 C-146.34427931 283.61541088 -138.09876267 283.61718434 -129.85320527 283.61484561 C-123.15282425 283.61306435 -116.45245312 283.61480796 -109.75207329 283.61907005 C-108.7993346 283.61966524 -107.8465959 283.62026043 -106.86498634 283.62087366 C-104.92965313 283.62208538 -102.99431992 283.62329951 -101.05898672 283.62451603 C-82.8996799 283.63539845 -64.74039164 283.63322572 -46.58108377 283.62713119 C-29.95925298 283.62196105 -13.33748079 283.63321878 3.28433841 283.65222941 C20.34203193 283.67158936 37.39969771 283.67986707 54.45740229 283.67610615 C64.0378589 283.67419135 73.61826563 283.6767088 83.1987133 283.69082069 C91.35432007 283.70271199 99.50984626 283.70416474 107.66545408 283.69203053 C111.82807643 283.68612604 115.99055123 283.68508554 120.15316391 283.69703293 C123.96214798 283.70783849 127.77086036 283.7048524 131.57983143 283.69077124 C132.95933394 283.68810955 134.33885738 283.69053677 135.71833944 283.69850711 C137.59088919 283.70857713 139.46351523 283.69842171 141.33605862 283.68723011 C142.37698207 283.68728513 143.41790553 283.68734014 144.49037212 283.68739682 C147.76661789 283.25217412 149.64723471 282.23335996 152.3125 280.3125 C154.54340114 277.16335468 154.56552103 274.38253792 154.57319641 270.58815002 C154.58028122 269.42030975 154.58736603 268.25246948 154.59466553 267.04924011 C154.5909494 265.13296562 154.5909494 265.13296562 154.5871582 263.17797852 C154.59150644 261.81605754 154.59668996 260.45413901 154.60264587 259.09222412 C154.61603513 255.39593458 154.61661464 251.6997473 154.61408257 248.00343823 C154.61301282 244.91692276 154.61789633 241.83042797 154.622688 238.74391693 C154.6337829 231.46199333 154.63422067 224.18012132 154.62817383 216.89819336 C154.62213293 209.38754803 154.63444793 201.87708998 154.6557439 194.3664766 C154.67336025 187.91625288 154.67936121 181.46608878 154.67610615 175.0158419 C154.67429322 171.16421697 154.67693043 167.31272565 154.69082069 163.46112251 C154.70339507 159.83887137 154.70145887 156.21691218 154.68840981 152.59466553 C154.6849162 150.6335321 154.69622485 148.67238978 154.70797729 146.71128845 C154.70096298 145.54062836 154.69394867 144.36996826 154.6867218 143.16383362 C154.68688954 142.14860406 154.68705729 141.1333745 154.68723011 140.08738041 C154.24485894 136.81161727 153.26422757 134.96227603 151.3125 132.3125 C147.86814261 130.01626174 146.60881507 130.06068654 142.55371284 130.05523109 C141.34556832 130.0487822 140.1374238 130.04233331 138.89266884 130.035689 C137.54507349 130.03863153 136.19747854 130.04176699 134.84988403 130.04507446 C133.42367495 130.04133994 131.99746791 130.03673921 130.57126415 130.03134382 C126.64272738 130.01907389 122.7142755 130.01937896 118.78572392 130.02173257 C114.55249919 130.02213973 110.31930205 130.01111125 106.08609009 130.00161743 C97.78893848 129.98498467 89.49181528 129.97950686 81.1946484 129.97839268 C74.45229032 129.97744329 67.70994163 129.97333849 60.96758652 129.96699142 C41.86384968 129.94937291 22.76013534 129.94015352 3.65639032 129.94165237 C2.62589968 129.94173228 1.59540904 129.9418122 0.53369141 129.94189453 C-1.01392558 129.94201717 -1.01392558 129.94201717 -2.59280755 129.94214229 C-19.31818162 129.9429554 -36.04346568 129.92381315 -52.76881371 129.8956178 C-69.93043759 129.8669146 -87.09201754 129.85307608 -104.25366604 129.85480535 C-113.89340141 129.85547013 -123.53304241 129.84993927 -133.1727562 129.82844925 C-141.37963954 129.81027115 -149.58638575 129.80586228 -157.79328047 129.8194681 C-161.98226796 129.82601483 -166.17099211 129.82605387 -170.35995483 129.8087616 C-174.19310131 129.7931006 -178.02577412 129.79582234 -181.85890855 129.81332986 C-183.24719144 129.81641524 -184.63550907 129.81270976 -186.02375101 129.80160971 C-187.90813005 129.78753798 -189.79265311 129.80043798 -191.67703056 129.81472206 C-193.24834215 129.81406996 -193.24834215 129.81406996 -194.8513974 129.81340468 C-198.44150164 130.44518867 -200.11355987 131.77440782 -202.6875 134.3125 Z M-165.6875 301.3125 C-168.3275 307.9125 -170.9675 314.5125 -173.6875 321.3125 C-181.38529514 336.95640626 -190.7354827 349.72084875 -202.6875 362.3125 C-208.8945249 368.99784403 -212.23367881 373.348333 -211.99609375 382.75390625 C-211.18418685 389.48553938 -207.7097977 393.74205411 -202.6262207 397.95214844 C-199.66141391 400.0324788 -196.53557487 400.98117025 -193.0625 401.8125 C-192.29583008 402.0084375 -191.52916016 402.204375 -190.73925781 402.40625 C-188.06175928 403.07224264 -185.37670349 403.69551647 -182.6875 404.3125 C-181.67913086 404.5496875 -180.67076172 404.786875 -179.63183594 405.03125 C-145.47150071 412.95487955 -110.63581398 416.27100606 -75.6875 418.3125 C-74.45515625 418.38452637 -73.2228125 418.45655273 -71.953125 418.53076172 C-63.86707497 418.9697653 -55.78426544 419.20101909 -47.6875 419.3125 C-46.89766724 419.32345703 -46.10783447 419.33441406 -45.29406738 419.34570312 C59.49195819 424.95459712 59.49195819 424.95459712 155.9375 396 C161.2809333 390.67911283 162.6248028 385.37454142 162.80859375 378.03515625 C161.49821862 370.84356993 157.50860533 366.04110449 152.25 361.25 C134.70982905 344.40223676 125.33598266 323.87120666 116.3125 301.3125 C23.2525 301.3125 -69.8075 301.3125 -165.6875 301.3125 Z M-83.6875 435.3125 C-82.6774653 442.1789986 -81.3471631 448.20987026 -78.125 454.375 C-77.77493896 455.05618896 -77.42487793 455.73737793 -77.06420898 456.43920898 C-69.51653905 470.53743469 -57.45994595 479.67908791 -42.6875 485.3125 C-26.85151635 490.08610413 -10.6506054 487.9503027 4 480.625 C17.41350981 472.8541457 27.19934126 460.90795621 32.3125 446.3125 C33.09093556 442.66237772 33.73070924 438.99869313 34.3125 435.3125 C33.09916992 435.35793945 33.09916992 435.35793945 31.86132812 435.40429688 C-6.65332059 436.79433139 -45.17505674 436.75479867 -83.6875 435.3125 Z " fill="#000000" transform="translate(280.6875,6.6875)"/>
<path d="M0 0 C3.16017543 2.43090418 4.7823727 4.47276376 5.34803772 8.44241333 C5.45240646 9.46833588 5.55677521 10.49425842 5.66430664 11.55126953 C5.78435562 12.71232208 5.9044046 13.87337463 6.02809143 15.0696106 C6.15417282 16.32796722 6.28025421 17.58632385 6.41015625 18.8828125 C6.54191757 20.16735321 6.67367889 21.45189392 6.80943298 22.77536011 C7.15976711 26.19120239 7.50538555 29.60750605 7.85003662 33.02392578 C8.20252571 36.50972997 8.55945527 39.99507908 8.91601562 43.48046875 C9.61503299 50.31987276 10.30907148 57.15977425 11 64 C11.47626831 63.20565552 11.47626831 63.20565552 11.9621582 62.39526367 C13.40777738 59.98994108 14.86005426 57.58870601 16.3125 55.1875 C16.81201172 54.35412109 17.31152344 53.52074219 17.82617188 52.66210938 C18.31279297 51.85966797 18.79941406 51.05722656 19.30078125 50.23046875 C19.74591064 49.49207764 20.19104004 48.75368652 20.6496582 47.99291992 C23.85897251 43.25641067 23.85897251 43.25641067 27.0859375 42.53125 C28.21902344 42.51578125 28.21902344 42.51578125 29.375 42.5 C30.50035156 42.45359375 30.50035156 42.45359375 31.6484375 42.40625 C36.4572304 43.62043027 38.94725598 47.74185463 41.421875 51.76953125 C42.2055396 53.11276907 42.98150845 54.46052412 43.75 55.8125 C45.13893681 58.22853086 46.55046983 60.61905684 48 63 C48.33 63 48.66 63 49 63 C49.0640654 62.28447464 49.1281308 61.56894928 49.19413757 60.83174133 C49.80300335 54.07639014 50.4334125 47.32335672 51.08784771 40.57227802 C51.42352222 37.10164291 51.7509292 33.63064451 52.05932617 30.1574707 C52.41456004 26.16096892 52.80593803 22.16871985 53.19921875 18.17578125 C53.304655 16.93290848 53.41009125 15.69003571 53.51872253 14.40950012 C54.50935865 4.80627418 54.50935865 4.80627418 57.48364258 1.71801758 C60.67542394 -0.46113886 62.31108418 -0.75294817 66.0625 -0.46875 C69.71300264 0.41443612 71.00305216 1.879769 73 5 C74.24954701 14.13497273 72.25922923 24.12352063 71.35546875 33.265625 C71.18321051 35.0305705 71.01103688 36.79552426 70.83894348 38.56048584 C70.47852813 42.24218864 70.1138866 45.92344632 69.74682617 49.60449219 C69.27811866 54.31298812 68.82499773 59.02284592 68.37560558 63.73321915 C68.02591087 67.37148861 67.66548481 71.00863721 67.30208778 74.64556122 C67.1303718 76.38185522 66.96254666 78.11853876 66.79875755 79.85559845 C66.56876155 82.282936 66.32370213 84.70831154 66.07495117 87.13378906 C65.97892105 88.19995453 65.97892105 88.19995453 65.88095093 89.28765869 C65.40231092 93.75618004 64.35782784 97.16802185 62 101 C58.2626144 103.4915904 56.42668417 103.45793285 52 103 C47.78631534 100.22022222 45.54707347 97.09321261 43.01171875 92.7734375 C42.66365677 92.18454742 42.31559479 91.59565735 41.95698547 90.98892212 C41.22898889 89.75281288 40.50567338 88.51393583 39.78686523 87.27246094 C38.68328382 85.36772304 37.56464552 83.47248394 36.44335938 81.578125 C31 72.3025427 31 72.3025427 31 70 C27.97775572 72.65503925 26.10791342 75.91848632 24.09375 79.34765625 C23.34255175 80.60487975 22.59124643 81.86203929 21.83984375 83.11914062 C20.66591331 85.09513381 19.49416087 87.07237945 18.32470703 89.05102539 C17.19081888 90.96579877 16.04897671 92.8756486 14.90625 94.78515625 C14.55929077 95.37788834 14.21233154 95.97062042 13.8548584 96.58131409 C12.08817383 99.52583323 10.91538235 101.05641177 8 103 C4.17965826 103.42448242 1.71291489 103.31685106 -1.8125 101.75 C-7.81965403 94.19814922 -6.78630107 80.38094603 -7.7265625 70.9375 C-7.88047603 69.41396396 -8.03456278 67.89044542 -8.18881226 66.36694336 C-8.50909079 63.19378463 -8.82635669 60.02034228 -9.14160156 56.84667969 C-9.5427613 52.81188565 -9.95293305 48.77806543 -10.36556435 44.74443054 C-10.68547248 41.60470742 -10.99980122 38.46444346 -11.312603 35.32400513 C-11.46143551 33.83771071 -11.61209941 32.35159834 -11.76475906 30.86569214 C-14.21184784 6.96925274 -14.21184784 6.96925274 -11 1.75 C-6.82934033 -0.68288481 -4.78973399 -0.68424771 0 0 Z " fill="#000000" transform="translate(320,162)"/>
<path d="M0 0 C0.72960937 -0.04511719 1.45921875 -0.09023437 2.2109375 -0.13671875 C10.26622541 2.61354945 14.62821152 14.18524518 18.625 21.1875 C19.99610668 23.57517393 21.37186797 25.96012476 22.75 28.34375 C23.10545898 28.95959961 23.46091797 29.57544922 23.82714844 30.20996094 C29.5888705 40.13702001 35.63101072 49.89970878 41.625 59.6875 C41.62642502 59.02208694 41.62785004 58.35667389 41.62931824 57.6710968 C41.64900806 50.74393519 41.70326709 43.81765559 41.77758789 36.89086914 C41.80078173 34.30597258 41.81516681 31.72098133 41.82055664 29.13598633 C41.82983541 25.41948337 41.87080709 21.70447271 41.91796875 17.98828125 C41.91206978 16.25521477 41.91206978 16.25521477 41.90605164 14.48713684 C42.06855508 5.54636498 42.06855508 5.54636498 45.03808594 2.45800781 C49.05499156 -0.2911994 50.8375546 0.00357923 55.625 0.6875 C58.05619623 2.55765094 59.26569173 3.96888345 60.625 6.6875 C60.7339492 9.49855283 60.78233 12.28520775 60.78613281 15.09692383 C60.79358017 16.40204674 60.79358017 16.40204674 60.80117798 17.73353577 C60.81581849 20.62054222 60.82260505 23.50749372 60.828125 26.39453125 C60.83387528 28.39751691 60.83963303 30.40050254 60.84539795 32.40348816 C60.85591358 36.60761777 60.86175244 40.81172822 60.86523438 45.01586914 C60.87071764 50.4029698 60.89473977 55.78981752 60.92320633 61.17683887 C60.94183123 65.3161035 60.94703825 69.45530722 60.94857025 73.59461021 C60.95159808 75.58053659 60.95963097 77.56646187 60.97275543 79.55234718 C60.98981133 82.3317245 60.98793668 85.11048415 60.98144531 87.88989258 C60.9906601 88.71034058 60.99987488 89.53078857 61.0093689 90.37609863 C60.97577508 94.96809351 60.61051817 97.9670375 57.625 101.6875 C54.1163604 104.02659307 52.75410567 104.10041057 48.625 103.6875 C44.1845198 101.59664759 42.37046492 99.19405915 39.98046875 94.96484375 C39.65318787 94.39517883 39.32590698 93.82551392 38.9887085 93.23858643 C38.28521433 92.0115367 37.58714152 90.78136577 36.89401245 89.5484314 C35.05261072 86.27356397 33.17197425 83.02127462 31.296875 79.765625 C30.72289223 78.76519417 30.72289223 78.76519417 30.13731384 77.74455261 C26.08542448 70.70172181 21.84175713 63.78129945 17.5625 56.875 C17.20948822 56.30425751 16.85647644 55.73351501 16.49276733 55.14547729 C14.5411335 51.99014424 12.58536445 48.83741567 10.625 45.6875 C10.61913376 46.30058014 10.61326752 46.91366028 10.60722351 47.5453186 C10.54319543 53.93725204 10.45875122 60.32868638 10.36254883 66.72021484 C10.32933354 69.10426241 10.30129108 71.48838797 10.27856445 73.87255859 C10.24495682 77.30339739 10.19263593 80.73352363 10.13671875 84.1640625 C10.12713387 85.75814438 10.12713387 85.75814438 10.11735535 87.38442993 C10.0093321 92.84494884 9.82585765 97.03797222 6.625 101.6875 C2.87452518 104.18781654 1.06643734 104.22353554 -3.375 103.6875 C-6.09732328 101.70533923 -8.03834644 100.11925349 -8.83346748 96.73768425 C-9.01979147 94.33000422 -9.03913667 91.96919222 -9.00610352 89.55444336 C-9.01325882 88.64330276 -9.02041412 87.73216217 -9.02778625 86.79341125 C-9.04466836 83.78754241 -9.02527487 80.78316586 -9.00390625 77.77734375 C-9.00473492 75.68656796 -9.00719422 73.59579223 -9.01121521 71.50502014 C-9.01407279 67.12611246 -8.99937424 62.7477164 -8.97192383 58.36889648 C-8.93782036 52.75404074 -8.94386682 47.14009858 -8.9625864 41.52519894 C-8.97315019 37.20919672 -8.96422451 32.89340742 -8.94920158 28.577425 C-8.94401619 26.50695999 -8.94450589 24.43647277 -8.95074654 22.36601067 C-8.95619198 19.4739072 -8.93584572 16.58311607 -8.90844727 13.69116211 C-8.91497314 12.83442902 -8.92149902 11.97769592 -8.92822266 11.09500122 C-8.83476148 5.29830005 -8.83476148 5.29830005 -6.47593689 2.16456604 C-4.12771757 0.51364781 -2.85332835 0.06507591 0 0 Z " fill="#000000" transform="translate(136.375,161.3125)"/>
<path d="M0 0 C1.78227493 -0.01913956 1.78227493 -0.01913956 3.60055542 -0.03866577 C4.89011139 -0.04089142 6.17966736 -0.04311707 7.50830078 -0.04541016 C9.48746994 -0.05539536 9.48746994 -0.05539536 11.50662231 -0.06558228 C14.30262522 -0.07756714 17.09850447 -0.08126195 19.89453125 -0.08007812 C23.4748906 -0.07987503 27.05445529 -0.10716035 30.63462639 -0.14162254 C33.38847482 -0.1638792 36.14213178 -0.16791605 38.89606094 -0.16685867 C40.85702637 -0.1703632 42.81793204 -0.19203792 44.77877808 -0.21395874 C46.57050949 -0.20472885 46.57050949 -0.20472885 48.3984375 -0.1953125 C49.4494162 -0.19816254 50.5003949 -0.20101257 51.58322144 -0.20394897 C55.03407484 0.417589 56.18865486 1.5656601 58.32861328 4.29052734 C59.55762067 8.05948334 59.50887668 9.79717488 58.14111328 13.54052734 C56.2260181 16.44618899 55.46919675 17.07330539 52.32861328 18.29052734 C50.13922119 18.53103638 50.13922119 18.53103638 47.74365234 18.51757812 C46.84302063 18.51742706 45.94238892 18.517276 45.01446533 18.51712036 C44.05079041 18.50679779 43.08711548 18.49647522 42.09423828 18.48583984 C40.60449493 18.481595 40.60449493 18.481595 39.08465576 18.4772644 C35.91585184 18.46607878 32.74733163 18.44097697 29.57861328 18.41552734 C27.42887778 18.40549546 25.27913785 18.39636997 23.12939453 18.38818359 C17.86227048 18.36784721 12.59575908 18.32869507 7.32861328 18.29052734 C7.32861328 26.21052734 7.32861328 34.13052734 7.32861328 42.29052734 C9.29185547 42.25572266 11.25509766 42.22091797 13.27783203 42.18505859 C15.85725056 42.15691948 18.43667834 42.12961946 21.01611328 42.10302734 C22.95647461 42.06532227 22.95647461 42.06532227 24.93603516 42.02685547 C26.18320312 42.0171875 27.43037109 42.00751953 28.71533203 41.99755859 C29.86219482 41.98184814 31.00905762 41.9661377 32.19067383 41.94995117 C35.71187283 42.33212441 37.54524967 43.1259665 40.32861328 45.29052734 C41.8785247 48.9294498 42.60891183 51.16933313 41.64111328 55.04052734 C40.29403636 57.34980207 39.46788314 58.69434861 37.32861328 60.29052734 C34.23413086 60.63110352 34.23413086 60.63110352 30.47314453 60.58349609 C29.81150803 60.57925125 29.14987152 60.57500641 28.46818542 60.57063293 C26.35874418 60.55386428 24.25026482 60.51621834 22.14111328 60.47802734 C20.70948647 60.46297803 19.27784466 60.44929005 17.84619141 60.43701172 C14.33966501 60.40652018 10.83521334 60.34780393 7.32861328 60.29052734 C7.32861328 68.54052734 7.32861328 76.79052734 7.32861328 85.29052734 C12.22253906 85.22091797 12.22253906 85.22091797 17.21533203 85.14990234 C20.37929733 85.118697 23.54324541 85.09441471 26.70727539 85.07080078 C28.9042937 85.05069968 31.1012586 85.02341429 33.2980957 84.98876953 C36.45814195 84.94018641 39.61748015 84.9175433 42.77783203 84.89990234 C44.24841316 84.86893463 44.24841316 84.86893463 45.748703 84.83734131 C50.07604367 84.83592112 52.62959501 84.88208246 56.42553711 87.10009766 C59.07622336 90.15102222 59.32861328 92.28616927 59.32861328 96.29052734 C57.74022394 99.86440337 56.6122697 101.10142306 53.32861328 103.29052734 C50.79959106 103.55795288 50.79959106 103.55795288 47.74316406 103.58105469 C46.5983255 103.59381439 45.45348694 103.6065741 44.2739563 103.61972046 C43.03644623 103.62194611 41.79893616 103.62417175 40.52392578 103.62646484 C38.61702469 103.63645004 38.61702469 103.63645004 36.67160034 103.64663696 C33.97981792 103.65677189 31.28843926 103.66231791 28.59667969 103.66113281 C25.15431782 103.66092974 21.71278262 103.68821853 18.27061653 103.72267723 C14.98008408 103.75031989 11.68955858 103.74909623 8.39892578 103.75146484 C6.54873337 103.77302139 6.54873337 103.77302139 4.66116333 103.79501343 C3.51002045 103.78886017 2.35887756 103.78270691 1.17285156 103.77636719 C-0.34246658 103.78064224 -0.34246658 103.78064224 -1.88839722 103.78500366 C-5.44448305 103.15316505 -7.11616844 101.79911224 -9.67138672 99.29052734 C-10.94786595 95.46108966 -10.82703604 91.85024412 -10.83251953 87.859375 C-10.83748444 86.9989006 -10.84244934 86.13842621 -10.8475647 85.25187683 C-10.86218044 82.40277306 -10.86898708 79.55372496 -10.87451172 76.70458984 C-10.88026332 74.72545368 -10.88602105 72.74631753 -10.89178467 70.7671814 C-10.90229275 66.61610657 -10.90813679 62.4650511 -10.91162109 58.31396484 C-10.91710774 52.99527285 -10.94114027 47.67683661 -10.96959305 42.35822487 C-10.9882169 38.2695745 -10.99342488 34.1809858 -10.99495697 30.0922966 C-10.99798421 28.13148982 -11.00601513 26.17068415 -11.01914215 24.20991898 C-11.03619851 21.46657084 -11.0343235 18.72384841 -11.02783203 15.98046875 C-11.03704681 15.17094254 -11.0462616 14.36141632 -11.05575562 13.52735901 C-10.9952007 5.35720912 -8.49586878 0.06172083 0 0 Z " fill="#000000" transform="translate(231.67138671875,161.70947265625)"/>
</svg>
