<?xml version="1.0" encoding="UTF-8"?>
<svg version="1.1" xmlns="http://www.w3.org/2000/svg" width="512" height="512">
<path d="M0 0 C0.80179688 0.39058594 1.60359375 0.78117187 2.4296875 1.18359375 C22.99844433 11.33484105 41.78367907 24.28959667 58.6484375 39.8359375 C60.21719481 41.27961117 61.80606886 42.70172337 63.4140625 44.1015625 C111.85629435 86.39239983 138.70140332 150.44500788 143.6875 213.625 C146.16529942 260.85805151 137.44090899 308.1292922 115 350 C114.43974121 351.06831055 114.43974121 351.06831055 113.86816406 352.15820312 C99.34322624 379.80517054 79.0315994 405.93790586 55 426 C54.21302734 426.66346436 54.21302734 426.66346436 53.41015625 427.34033203 C38.76971052 439.61954941 22.93359344 450.15317162 6 459 C4.88310791 459.59095459 4.88310791 459.59095459 3.74365234 460.19384766 C-18.25100505 471.6901229 -42.57889668 479.640217 -67 484 C-67.89638184 484.16081055 -68.79276367 484.32162109 -69.71630859 484.48730469 C-81.50219794 486.50679111 -93.17074592 487.28479958 -105.125 487.375 C-106.32914551 487.38893799 -107.53329102 487.40287598 -108.77392578 487.41723633 C-109.9029834 487.41103271 -111.03204102 487.4048291 -112.1953125 487.3984375 C-113.19578613 487.39505371 -114.19625977 487.39166992 -115.22705078 487.38818359 C-119.73765705 486.75674637 -122.28955995 484.80911228 -125.25 481.4375 C-128.60684072 476.76190042 -128.64231865 472.65066811 -128 467 C-125.92975735 463.07367774 -123.39016295 458.88260052 -119.06347656 457.28491211 C-113.59137217 456.16405297 -108.32688995 455.69999229 -102.75 455.5625 C-41.90807536 453.16827079 13.70226462 425.14631193 55 381 C94.02245591 337.57278356 114.62492755 278.64633007 111.87988281 220.45361328 C109.51398767 178.7942686 96.55461333 137.04712657 72 103 C71.31550781 102.04222656 70.63101563 101.08445312 69.92578125 100.09765625 C49.0686932 71.60170651 23.07574269 48.81836876 -8 32 C-8.69689941 31.62278809 -9.39379883 31.24557617 -10.11181641 30.85693359 C-39.05088736 15.52686777 -71.91979469 7.5111834 -104.5390625 6.48242188 C-118.51453591 5.90912459 -118.51453591 5.90912459 -123.15625 2.34375 C-123.82140625 1.43109375 -123.82140625 1.43109375 -124.5 0.5 C-125.19609375 -0.41265625 -125.19609375 -0.41265625 -125.90625 -1.34375 C-128.74944336 -5.64915709 -128.57202652 -9.96771268 -128 -15 C-111.21219266 -46.83894495 -24.20220367 -11.7918085 0 0 Z " fill="#000000" transform="translate(368,25)"/>
<path d="M0 0 C4.69212885 2.39032979 8.83761414 5.70710692 10.64478683 10.82660007 C11.07961635 13.48713896 10.78853927 15.60983988 10.37091064 18.2743988 C10.21132087 19.34744452 10.05173109 20.42049023 9.88730526 21.52605247 C9.70954335 22.70266756 9.53178144 23.87928265 9.34863281 25.09155273 C6.81244045 43.14847559 5.2331636 61.23148772 4.25 79.4375 C4.18177213 80.66891267 4.18177213 80.66891267 4.11216593 81.92520237 C1.78541053 125.4012679 6.26515725 160.22652496 36.12614298 193.51681924 C46.9794812 205.4315187 58.49582759 216.55966432 70.4375 227.375 C71.13411303 228.00690546 71.83072605 228.63881091 72.54844856 229.28986502 C85.077798 240.63067893 97.79369152 251.75425132 110.96220398 262.34934998 C111.56902523 262.83796625 112.17584649 263.32658252 112.80105627 263.83000535 C115.63103423 266.10270066 118.47222205 268.35844474 121.33719254 270.58687496 C122.32298672 271.36543126 123.3087809 272.14398756 124.32444763 272.94613647 C125.18410346 273.61339941 126.04375929 274.28066235 126.92946529 274.96814537 C130.26530683 278.24166938 131.29202091 281.77795819 131.375 286.375 C131.24190207 291.08040321 130.12197179 294.44518846 127 298 C123.63668255 300.87797797 120.36278847 302.23442749 115.9375 302.4375 C109.20143545 301.68904838 105.28999768 298.66509042 100.58441162 293.95863342 C100.07433571 293.45253192 99.5642598 292.94643041 99.03872705 292.4249925 C97.34122149 290.73706716 95.654592 289.03868811 93.96777344 287.34008789 C92.74910244 286.12384621 91.52978626 284.90825072 90.30987549 283.69325256 C87.00573635 280.39850523 83.71106411 277.09443976 80.41829205 273.78833699 C76.97003068 270.32874783 73.51404813 266.87688702 70.05914307 263.42393494 C64.26044379 257.62611803 58.46774971 251.82235444 52.67871094 246.01489258 C45.98442805 239.29942802 39.2813433 232.59285098 32.57334495 225.89108855 C26.11974645 219.44318252 19.67183035 212.98962427 13.2266922 206.53326225 C10.48366692 203.78559099 7.73876481 201.03981501 4.99236298 198.29551888 C1.76035096 195.06538909 -1.46662716 191.8303127 -4.68976593 188.59132957 C-5.8740334 187.40281642 -7.06000523 186.21599877 -8.24778748 185.03099823 C-9.86731245 183.41469153 -11.4805628 181.79237163 -13.09234619 180.16835022 C-14.44951941 178.8080977 -14.44951941 178.8080977 -15.83411026 177.42036533 C-19.73240303 173.06405277 -20.2507795 170.2866898 -20.26742554 164.44717407 C-20.27195665 163.79053784 -20.27648776 163.1339016 -20.28115618 162.4573673 C-20.29380867 160.25877864 -20.2921793 158.06043743 -20.29052734 155.86181641 C-20.29651207 154.28477154 -20.30331749 152.70772961 -20.31088257 151.13069153 C-20.32855536 146.84758862 -20.33323848 142.56456561 -20.33451414 138.28142977 C-20.33641348 134.70539867 -20.3437714 131.12938618 -20.35085833 127.55336225 C-20.3671447 119.11596889 -20.37202705 110.67861821 -20.37060547 102.24121094 C-20.3694039 93.5388129 -20.39050811 84.83666282 -20.4220928 76.13432753 C-20.4482478 68.66159162 -20.45897309 61.18893674 -20.45769465 53.71615541 C-20.45718479 49.25356925 -20.46288102 44.79120343 -20.48405075 40.32866287 C-20.50342018 36.13100503 -20.50356667 31.93377803 -20.48901749 27.73610497 C-20.48692667 26.19701063 -20.49164659 24.65788942 -20.5037384 23.11884117 C-20.51919979 21.01432003 -20.50987932 18.9112829 -20.49447632 16.80679321 C-20.49611062 15.04197822 -20.49611062 15.04197822 -20.49777794 13.24151039 C-19.76646858 8.47925258 -17.52188909 5.33741769 -13.9375 2.1875 C-9.54289675 -0.50596651 -4.99992452 -0.61642905 0 0 Z " fill="#000000" transform="translate(260,90)"/>
<path d="M0 0 C1.20527344 0.39123047 2.41054687 0.78246094 3.65234375 1.18554688 C5.39451172 1.76852539 5.39451172 1.76852539 7.171875 2.36328125 C8.21956055 2.71302002 9.26724609 3.06275879 10.34667969 3.4230957 C14.60823039 5.27901322 17.46610149 7.52516772 20.0625 11.375 C21.80618643 16.23896742 22.2312094 20.7088286 20.59375 25.6796875 C18.26788998 30.35145806 15.12901719 32.93587864 10.25 34.6875 C2.04504111 35.44614947 -4.66557586 33.1553748 -12.375 30.5 C-13.56351563 30.11263672 -14.75203125 29.72527344 -15.9765625 29.32617188 C-23.39290275 26.82232933 -30.08854032 24.55090921 -34.6875 17.875 C-36.4141335 12.6950995 -36.4446449 8.65566054 -34.625 3.5 C-32.11617803 -0.26323295 -29.23429897 -3.48720218 -24.80175781 -4.9597168 C-16.42398918 -6.40020652 -7.77789108 -2.63335966 0 0 Z " fill="#000000" transform="translate(185.75,469.3125)"/>
<path d="M0 0 C4.88031433 3.13125063 9.13949195 7.00599968 13.40234375 10.91796875 C15.684859 12.94512515 18.04620388 14.78548211 20.484375 16.62109375 C25.27309706 20.34008383 28.59557682 23.12128942 29.609375 29.30859375 C29.91320601 33.88125043 29.04910109 36.9459887 26.671875 40.93359375 C22.90228846 44.898336 19.53396827 46.74096341 14.046875 47.30859375 C3.68357528 47.04575644 -4.30953306 37.95780664 -11.59082031 31.45800781 C-12.79205797 30.40397072 -14.0116122 29.37057857 -15.24511719 28.35449219 C-15.86805664 27.84047852 -16.49099609 27.32646484 -17.1328125 26.796875 C-17.69726074 26.33966064 -18.26170898 25.88244629 -18.84326172 25.41137695 C-22.03644386 22.23342044 -23.22654314 18.28322633 -23.41796875 13.85546875 C-23.05281385 8.94928494 -21.50187892 5.62201047 -18.328125 1.93359375 C-12.91489659 -1.93299797 -6.10503985 -2.79643604 0 0 Z " fill="#000000" transform="translate(100.328125,420.06640625)"/>
<path d="M0 0 C8.83667633 3.83478407 13.67298552 15.52399025 18.375 23.5 C18.92027344 24.38558594 19.46554688 25.27117187 20.02734375 26.18359375 C23.36369287 31.87796405 25.08161533 36.36974012 24 43 C22.07936852 48.35755096 19.08325568 51.45837216 14 54 C11.86328125 54.23828125 11.86328125 54.23828125 9.3125 54.3125 C8.06919922 54.36857422 8.06919922 54.36857422 6.80078125 54.42578125 C1.38959434 53.60316009 -2.01755423 51.21227657 -5.37109375 47.07421875 C-6.05300781 45.95660156 -6.73492187 44.83898437 -7.4375 43.6875 C-7.80875 43.08010986 -8.18 42.47271973 -8.5625 41.84692383 C-9.73114542 39.91048828 -10.86795649 37.95802494 -12 36 C-12.38430176 35.34902344 -12.76860352 34.69804687 -13.16455078 34.02734375 C-22.03990681 18.88769446 -22.03990681 18.88769446 -21 12 C-19.69364813 7.58215548 -17.72578478 4.70808271 -14.4375 1.5 C-9.54353238 -0.63554951 -5.25805043 -0.74665888 0 0 Z " fill="#000000" transform="translate(46,351)"/>
<path d="M0 0 C3.72317861 2.80600535 5.37750695 5.4124881 6.1640625 9.95703125 C6.24250161 16.18733735 5.02655027 19.93904294 1.1640625 24.95703125 C-1.68359375 27.4140625 -1.68359375 27.4140625 -4.8984375 29.76953125 C-6.05327134 30.62730913 -7.20689469 31.48671883 -8.359375 32.34765625 C-8.9378418 32.77755859 -9.51630859 33.20746094 -10.11230469 33.65039062 C-13.73421685 36.39606681 -17.20001408 39.333546 -20.69140625 42.2421875 C-25.51092277 46.09604497 -30.88893084 45.51674952 -36.8359375 44.95703125 C-41.33270298 42.82698444 -43.86075281 40.53114317 -45.8359375 35.95703125 C-47.25663184 29.76686308 -46.83630995 25.57657008 -43.8359375 19.95703125 C-41.91327208 17.67352272 -39.73767755 15.86421805 -37.3984375 14.01953125 C-36.78025146 13.51373535 -36.16206543 13.00793945 -35.52514648 12.48681641 C-33.64280702 10.95830377 -31.74141386 9.45654527 -29.8359375 7.95703125 C-28.72134837 7.05729885 -27.60676473 6.15755965 -26.4921875 5.2578125 C-18.06481101 -1.3500168 -10.16074563 -5.77216826 0 0 Z " fill="#000000" transform="translate(125.8359375,46.04296875)"/>
<path d="M0 0 C3.4908279 3.09414291 5.4809777 5.93247082 6.75 10.4375 C7.02700451 15.63133447 6.19537433 20.41789661 2.75 24.4375 C-3.68191301 28.73153284 -10.81002896 30.88159697 -18.125 33.25 C-19.35347656 33.66958984 -20.58195312 34.08917969 -21.84765625 34.52148438 C-28.8412439 36.79646171 -34.02203893 38.08222992 -41.25 36.4375 C-45.60835033 34.17761464 -48.47759502 32.06544634 -50.25 27.4375 C-50.90528913 22.146647 -50.92405257 17.86338044 -48.625 13 C-43.26727884 7.21930086 -37.23042751 5.1538051 -29.875 2.8125 C-28.9675 2.5134375 -28.06 2.214375 -27.125 1.90625 C-8.58979623 -4.12970973 -8.58979623 -4.12970973 0 0 Z " fill="#000000" transform="translate(203.25,9.5625)"/>
<path d="M0 0 C4.34731225 2.2146685 7.48432837 4.80721395 10 9 C11.5956751 16.68825277 10.31585793 23.58213732 8.73168945 31.16674805 C8.31190692 33.190359 7.92135279 35.21815883 7.53320312 37.24804688 C7.27087891 38.54162109 7.00855469 39.83519531 6.73828125 41.16796875 C6.50149658 42.33610107 6.26471191 43.5042334 6.02075195 44.70776367 C4.38994228 49.96762219 1.73325004 54.09897578 -3 57 C-8.07538397 58.69179466 -12.31964436 58.56371867 -17.1875 56.375 C-21.11940611 54.15328218 -23.20188017 52.27053459 -25 48 C-26.48045886 39.34284054 -24.37547996 30.55846435 -22.75 22.0625 C-22.54576416 20.97219482 -22.34152832 19.88188965 -22.13110352 18.75854492 C-20.72736157 11.89774956 -19.32656258 6.92334287 -13.9375 2.1875 C-9.54289675 -0.50596651 -4.99992452 -0.61642905 0 0 Z " fill="#000000" transform="translate(26,183)"/>
<path d="M0 0 C4.25713497 3.93784985 6.03440284 7.35300696 6.56469727 13.22583008 C6.34956138 20.16457131 1.75123949 26.61440629 -1.8125 32.3125 C-2.27333984 33.06789062 -2.73417969 33.82328125 -3.20898438 34.6015625 C-12.83071556 50.17832898 -12.83071556 50.17832898 -19.5 52.3125 C-24.89567505 53.07092822 -28.87088337 52.36350869 -33.5 49.3125 C-37.90832158 44.42760312 -39.09481091 41.15150521 -39.03515625 34.640625 C-37.94388288 27.85401983 -34.0748906 22.07603675 -30.5 16.3125 C-30.14244629 15.73193848 -29.78489258 15.15137695 -29.41650391 14.55322266 C-22.39426713 3.28573935 -14.30953456 -6.89923988 0 0 Z " fill="#000000" transform="translate(65.5,106.6875)"/>
<path d="M0 0 C7.77647383 6.83387094 8.49672095 15.51236507 10.1875 25.25 C10.36925781 26.24837891 10.55101562 27.24675781 10.73828125 28.27539062 C13.50175782 44.07707434 13.50175782 44.07707434 9.0625 50.8125 C5.34863108 54.63247946 1.35410286 56.50011557 -3.9375 56.8125 C-9.6025423 55.98969753 -13.23210569 54.19822823 -16.83764648 49.60986328 C-18.81545835 46.37775431 -19.43941471 42.93850378 -20.125 39.25 C-20.28444092 38.45859619 -20.44388184 37.66719238 -20.6081543 36.85180664 C-21.07183755 34.50874908 -21.507452 32.1619309 -21.9375 29.8125 C-22.17726563 28.575 -22.41703125 27.3375 -22.6640625 26.0625 C-24.03434742 18.31582257 -24.89246787 11.58279518 -21.1875 4.4375 C-15.61640265 -2.06211358 -7.95980858 -3.21779496 0 0 Z " fill="#000000" transform="translate(23.9375,270.1875)"/>
</svg>
