<?xml version="1.0" encoding="UTF-8"?>
<svg version="1.1" xmlns="http://www.w3.org/2000/svg" width="512" height="512">
<path d="M0 0 C0.67372147 -0.00581376 1.34744293 -0.01162753 2.0415802 -0.01761746 C4.29769864 -0.03220815 6.55272751 -0.01833775 8.80883789 -0.00457001 C10.44316667 -0.00917932 12.0774913 -0.01553244 13.71180725 -0.02347898 C18.20180347 -0.04019136 22.69146001 -0.03191731 27.18145752 -0.01953411 C32.02407137 -0.01049375 36.86662632 -0.02444831 41.70922852 -0.0354538 C51.19547698 -0.05325443 60.68159895 -0.04939215 70.1678524 -0.03780323 C77.87647923 -0.02877527 85.58507057 -0.02754215 93.29370117 -0.0318985 C94.39019895 -0.03251143 95.48669672 -0.03312436 96.6164217 -0.03375587 C98.84383012 -0.03503475 101.07123853 -0.0363316 103.29864693 -0.03764623 C124.19251875 -0.04905656 145.08632042 -0.03593122 165.98018074 -0.01444477 C183.91398702 0.00342661 201.84768973 0.00032263 219.78149414 -0.01811981 C240.59982509 -0.03951852 261.41809452 -0.04795788 282.23643494 -0.03567076 C284.45571898 -0.03439654 286.67500304 -0.03313906 288.89428711 -0.0318985 C289.98626058 -0.0312814 291.07823404 -0.03066429 292.20329762 -0.03002849 C299.90402005 -0.0265726 307.60470352 -0.0324091 315.30541992 -0.04181671 C324.68809716 -0.05302696 334.07064051 -0.05001714 343.45330238 -0.02869374 C348.24189245 -0.01817023 353.03025917 -0.01408365 357.81884766 -0.02729034 C362.2008803 -0.03919313 366.58248217 -0.03268673 370.96447563 -0.01138014 C372.55119843 -0.00690509 374.13795749 -0.00920057 375.72465706 -0.01888329 C377.87962005 -0.03102691 380.03310282 -0.01859521 382.18798828 0 C383.38541153 0.00064941 384.58283478 0.00129882 385.81654358 0.00196791 C390.91119161 0.78136623 393.98388865 3.33483247 397.46899414 7.00336456 C399.86702989 12.16836465 399.84780949 16.90359336 399.09399414 22.50336456 C396.78330437 27.48023484 393.80811455 29.81086951 389.09399414 32.50336456 C385.81654358 33.00476122 385.81654358 33.00476122 382.18798828 33.00672913 C381.51426682 33.01254289 380.84054535 33.01835665 380.14640808 33.02434659 C377.89028964 33.03893727 375.63526077 33.02506688 373.37915039 33.01129913 C371.74482162 33.01590845 370.11049699 33.02226157 368.47618103 33.03020811 C363.98618481 33.04692049 359.49652827 33.03864643 355.00653076 33.02626324 C350.16391691 33.01722287 345.32136196 33.03117744 340.47875977 33.04218292 C330.9925113 33.05998356 321.50638933 33.05612127 312.02013588 33.04453236 C304.31150905 33.03550439 296.60291771 33.03427128 288.89428711 33.03862762 C287.24954045 33.03954702 287.24954045 33.03954702 285.57156658 33.04048499 C283.34415816 33.04176388 281.11674975 33.04306073 278.88934135 33.04437536 C257.99546953 33.05578568 237.10166786 33.04266035 216.20780754 33.02117389 C198.27400126 33.00330251 180.34029855 33.00640649 162.40649414 33.02484894 C141.58816319 33.04624765 120.76989376 33.05468701 99.95155334 33.04239988 C97.7322693 33.04112567 95.51298524 33.03986818 93.29370117 33.03862762 C92.20172771 33.03801052 91.10975424 33.03739342 89.98469067 33.03675762 C82.28396823 33.03330172 74.58328476 33.03913823 66.88256836 33.04854584 C57.49989112 33.05975609 48.11734777 33.05674626 38.7346859 33.03542286 C33.94609583 33.02489935 29.15772911 33.02081278 24.36914062 33.03401947 C19.98710798 33.04592226 15.60550611 33.03941585 11.22351265 33.01810926 C9.63678985 33.01363421 8.05003079 33.0159297 6.46333122 33.02561241 C4.30836823 33.03775604 2.15488546 33.02532434 0 33.00672913 C-1.19742325 33.00607972 -2.3948465 33.00543031 -3.6285553 33.00476122 C-8.72320333 32.22536289 -11.79590037 29.67189665 -15.28100586 26.00336456 C-17.67904161 20.83836448 -17.65982121 16.10313576 -16.90600586 10.50336456 C-13.49255297 3.15131218 -7.9695115 0.00432218 0 0 Z " fill="#000000" transform="translate(64.906005859375,239.49663543701172)"/>
<path d="M0 0 C1.51429588 -0.00935994 1.51429588 -0.00935994 3.0591836 -0.01890898 C6.44020636 -0.03485714 9.82051003 -0.02222709 13.20153809 -0.00964355 C15.62615886 -0.01506383 18.05077634 -0.02218596 20.47538757 -0.03088379 C26.37620273 -0.04723603 32.2768313 -0.04483397 38.17764127 -0.03323323 C42.97389799 -0.02419484 47.77009768 -0.02297664 52.56636047 -0.02732849 C53.24932942 -0.02794142 53.93229837 -0.02855436 54.63596335 -0.02918586 C56.02345878 -0.03046478 57.41095418 -0.03176163 58.79844958 -0.03307623 C71.80500456 -0.04447883 84.81144673 -0.03137339 97.81798321 -0.00987476 C108.97502544 0.00799597 120.1319012 0.00489177 131.28894043 -0.0135498 C144.24936269 -0.03496222 157.2096861 -0.04338022 170.17012358 -0.03110075 C171.55247719 -0.02982657 172.93483081 -0.02856909 174.31718445 -0.02732849 C175.337366 -0.02640284 175.337366 -0.02640284 176.37815729 -0.02545848 C181.16792594 -0.02200669 185.95763182 -0.02783024 190.74739075 -0.0372467 C197.19559334 -0.0496451 203.64355548 -0.04080127 210.09173012 -0.01766968 C212.45966888 -0.01237611 214.82763408 -0.01390736 217.19556236 -0.02272034 C220.42524863 -0.03363327 223.6539233 -0.01996246 226.88354492 0 C227.82303938 -0.00892289 228.76253385 -0.01784577 229.73049784 -0.02703905 C235.30999903 0.03996154 238.51900031 0.77898626 242.94177246 4.50793457 C246.5701091 8.32723629 247.25177704 11.39072463 247.44177246 16.50793457 C247.25177704 21.62514451 246.5701091 24.68863285 242.94177246 28.50793457 C237.65358543 32.96490898 233.4963292 33.08058532 226.89027405 33.02259827 C225.37703652 33.03301656 225.37703652 33.03301656 223.83322853 33.04364532 C220.45455246 33.06193408 217.07657704 33.0516454 213.69787598 33.04138184 C211.27487665 33.04843932 208.85188173 33.05718362 206.42889404 33.06748962 C200.53176263 33.08767304 194.63480911 33.08900626 188.73766536 33.08086408 C183.94379895 33.07456042 179.14998879 33.07570446 174.35612297 33.08213615 C173.67344274 33.08303781 172.99076252 33.08393946 172.28739501 33.08486844 C170.90046532 33.08671967 169.51353564 33.08858223 168.12660598 33.090456 C155.12479504 33.10702981 142.12309265 33.09831898 129.12128823 33.08147042 C117.23112813 33.06677487 105.34122076 33.08140042 93.4510932 33.11024059 C81.23653783 33.13964659 69.02209905 33.15060331 56.80750984 33.14105839 C55.42541915 33.14003585 54.04332844 33.13904124 52.66123772 33.13807487 C51.98125739 33.13759848 51.30127707 33.1371221 50.60069128 33.13663127 C45.81437723 33.13446866 41.02817376 33.14426304 36.24188423 33.1588459 C29.79610683 33.17821123 23.35068456 33.17126895 16.90492249 33.1466465 C14.5390134 33.14163215 12.17306861 33.14514442 9.80718803 33.15779495 C6.57766786 33.17369757 3.34970114 33.15879912 0.12025452 33.13612366 C-0.8163271 33.14795939 -1.75290872 33.15979511 -2.71787161 33.1719895 C-9.09566532 33.08099257 -12.25171137 31.74082642 -17.05822754 27.50793457 C-20.62597069 22.55912956 -20.8903663 17.40770492 -20.05822754 11.50793457 C-16.74555199 1.64477066 -9.28704466 -0.08820408 0 0 Z " fill="#000000" transform="translate(217.0582275390625,111.4920654296875)"/>
<path d="M0 0 C1.00882502 -0.00694553 2.01765004 -0.01389106 3.05704552 -0.02104706 C6.43572159 -0.03933581 9.813697 -0.02904714 13.19239807 -0.01878357 C15.6153974 -0.02584106 18.03839232 -0.03458535 20.46138 -0.04489136 C26.35851142 -0.06507478 32.25546494 -0.06640799 38.15260869 -0.05826581 C42.94647509 -0.05196215 47.74028526 -0.05310619 52.53415108 -0.05953789 C53.55817142 -0.06089037 53.55817142 -0.06089037 54.60287904 -0.06227018 C55.98980873 -0.06412141 57.37673841 -0.06598397 58.76366807 -0.06785773 C71.76547901 -0.08443154 84.7671814 -0.07572071 97.76898582 -0.05887216 C109.65914592 -0.0441766 121.54905329 -0.05880216 133.43918084 -0.08764232 C145.65373622 -0.11704832 157.86817499 -0.12800505 170.08276421 -0.11846012 C171.4648549 -0.11743759 172.8469456 -0.11644298 174.22903633 -0.11547661 C175.24900682 -0.11476202 175.24900682 -0.11476202 176.28958277 -0.114033 C181.07589682 -0.11187039 185.86210029 -0.12166477 190.64838982 -0.13624763 C197.09416722 -0.15561296 203.53958948 -0.14867068 209.98535156 -0.12404823 C212.35126065 -0.11903388 214.71720543 -0.12254615 217.08308601 -0.13519669 C220.31260619 -0.1510993 223.54057291 -0.13620085 226.77001953 -0.11352539 C227.70660115 -0.12536112 228.64318277 -0.13719685 229.60814565 -0.14939123 C235.98593937 -0.0583943 239.14198542 1.28177184 243.94850159 5.5146637 C247.03579299 9.79703564 247.52987257 13.82066565 247.36647034 18.97950745 C246.52486603 24.0841915 243.97372598 27.89522148 239.97074795 31.09614658 C235.63646551 33.13047902 231.74349228 32.93252744 227.01052856 32.90234375 C225.49751432 32.91042206 225.49751432 32.91042206 223.95393413 32.91866356 C220.56991954 32.93298494 217.18629381 32.92582896 213.80226135 32.91871643 C211.37778915 32.92441779 208.95331963 32.93138113 206.52885437 32.93951416 C200.6245946 32.95561911 194.72043308 32.95754097 188.81616301 32.95230126 C184.01702797 32.94825942 179.21792436 32.94970326 174.41879082 32.95504951 C173.73568638 32.95579794 173.05258194 32.95654636 172.34877736 32.95731746 C170.96104041 32.95884894 169.57330347 32.96038729 168.18556654 32.96193243 C155.17236274 32.97565961 142.15921907 32.97021826 129.14601665 32.95874722 C117.24221965 32.94881452 105.33857807 32.96175567 93.43480504 32.98568141 C81.21012744 33.01006691 68.98552225 33.01968165 56.76082081 33.01302868 C49.89831741 33.00953523 43.03593357 33.01177672 36.17344856 33.02927971 C29.72116839 33.0455324 23.26911212 33.04082856 16.81683731 33.02197456 C14.44728211 33.01827986 12.07770503 33.02142266 9.70816994 33.03186035 C6.476254 33.04501106 3.24533107 33.03357437 0.01345825 33.01586914 C-0.92671833 33.02547415 -1.86689491 33.03507915 -2.83556169 33.04497522 C-8.41788324 32.9819487 -11.62683827 32.24656519 -16.05149841 28.5146637 C-19.67983505 24.69536198 -20.36150299 21.63187364 -20.55149841 16.5146637 C-20.36150299 11.39745376 -19.67983505 8.33396542 -16.05149841 4.5146637 C-10.76331138 0.05768928 -6.60605515 -0.05798705 0 0 Z " fill="#000000" transform="translate(68.05149841308594,367.48533630371094)"/>
</svg>
