<?xml version="1.0" encoding="UTF-8"?>
<svg version="1.1" xmlns="http://www.w3.org/2000/svg" width="1024" height="1024">
<path d="M0 0 C0.91040039 0.15597656 1.82080078 0.31195313 2.75878906 0.47265625 C42.92202254 7.6092624 79.453976 24.91961988 110 52 C110.89460938 52.78375 111.78921875 53.5675 112.7109375 54.375 C122.01354537 62.61854174 130.252682 71.2811423 138 81 C138.65742187 81.77859375 139.31484375 82.5571875 139.9921875 83.359375 C169.21284007 118.33027647 185.06331126 165.76977721 186 211 C186.02046387 211.70656738 186.04092773 212.41313477 186.06201172 213.14111328 C187.40712758 263.37730001 173.73327998 310.46010681 144.75 351.625 C144.34958496 352.19371826 143.94916992 352.76243652 143.53662109 353.34838867 C140.96306935 356.9077036 138.14346654 359.94265583 135 363 C133.03822849 365.08207199 131.11293143 367.19683903 129.1875 369.3125 C128.68541016 369.86228516 128.18332031 370.41207031 127.66601562 370.97851562 C126.44296032 372.31805239 125.22132992 373.65888992 124 375 C125.98156242 379.66313331 129.45639581 382.84137677 132.90625 386.46484375 C136.33152191 390.61223455 137.53258169 394.45928573 137.37890625 399.87890625 C136.4322922 405.17799314 133.1513487 408.92897795 129.3125 412.5 C124.70127068 414.58810384 120.97398086 414.97071639 116 414 C108.80643398 410.84909918 103.8705828 404.97210425 99 399 C88.80738024 404.93221256 81.16621978 412.83227605 73.36035156 421.50488281 C68.53695049 426.80612262 63.34679511 431.61176505 57.93359375 436.296875 C52.15372672 441.38782859 47.3542848 446.92195461 42.69921875 453.05859375 C42.13847656 453.69925781 41.57773437 454.33992188 41 455 C40.34 455 39.68 455 39 455 C38.58379395 455.88788208 38.58379395 455.88788208 38.15917969 456.79370117 C37.07250061 458.86200757 35.92643438 460.49701744 34.453125 462.30078125 C25.85539973 473.05270981 18.612908 484.3359483 11.64599609 496.20019531 C10.10770599 498.81679438 8.55074753 501.42122848 6.98828125 504.0234375 C-9.74816406 532.12803434 -22.88358231 563.51424715 -30.30175781 595.3894043 C-30.49479492 596.20449463 -30.68783203 597.01958496 -30.88671875 597.859375 C-31.05389404 598.58608398 -31.22106934 599.31279297 -31.39331055 600.06152344 C-32 602 -32 602 -34 605 C-35.32 605 -36.64 605 -38 605 C-41.30880301 597.92853162 -43.66147536 590.89263641 -45.6875 583.375 C-48.01349621 574.84843075 -50.87631724 566.61791367 -54.0625 558.375 C-54.47395264 557.30942871 -54.88540527 556.24385742 -55.30932617 555.14599609 C-57.98759147 548.32364731 -60.89466407 541.6380062 -64 535 C-64.42756592 534.08460449 -64.85513184 533.16920898 -65.2956543 532.22607422 C-77.17821675 506.9373745 -90.24954548 483.42666861 -107 461 C-107.65742188 460.10667969 -108.31484375 459.21335937 -108.9921875 458.29296875 C-119.30685292 444.5976594 -132.02134521 431.65433657 -145.1171875 420.61328125 C-146.46550981 419.45797604 -147.77997889 418.2626992 -149.0703125 417.04296875 C-154.33591394 412.08973349 -159.85710881 407.86232378 -165.75 403.6875 C-186.37687518 389.0071305 -204.31128978 371.66026505 -219 351 C-219.43328613 350.40606445 -219.86657227 349.81212891 -220.31298828 349.20019531 C-254.71782632 301.88851698 -266.12720038 241.2806058 -257.49609375 184.03710938 C-252.42533152 152.99366344 -241.5160553 121.6519846 -223 96 C-222.54657227 95.36304199 -222.09314453 94.72608398 -221.62597656 94.06982422 C-215.69986772 85.79029407 -209.45195376 78.0149446 -202.4609375 70.61328125 C-200.33563966 68.35641735 -198.31275364 66.05431596 -196.3125 63.6875 C-193.5508783 60.51746946 -190.61721094 57.74594827 -187.40625 55.03515625 C-185.54678114 53.46245612 -183.72209139 51.86793029 -181.90625 50.24609375 C-169.11008843 38.90299638 -155.11712438 29.94514915 -140 22 C-138.94981689 21.44530029 -138.94981689 21.44530029 -137.87841797 20.87939453 C-117.93421095 10.50444595 -96.22869395 3.35247729 -74 0 C-72.95392578 -0.17136475 -72.95392578 -0.17136475 -71.88671875 -0.34619141 C-49.00180369 -3.98256562 -22.83443771 -3.94456534 0 0 Z M-120 69 C-120.63341309 69.35175293 -121.26682617 69.70350586 -121.91943359 70.06591797 C-135.20287449 77.52005567 -146.92237226 86.53573085 -158 97 C-158.74765625 97.69480469 -159.4953125 98.38960937 -160.265625 99.10546875 C-190.13566846 127.77444403 -208.98650874 171.83923444 -210.23828125 213.09765625 C-211.0304959 262.68601111 -192.8762864 307.9413265 -158.6184082 343.66748047 C-128.42307704 374.40086805 -83.48820419 393.60821691 -40.40380859 394.24145508 C-1.12811933 394.36500794 42.20106189 381.56631169 72 355 C72 354.34 72 353.68 72 353 C72.66 353 73.32 353 74 353 C75.16932956 351.83067044 76.33342353 350.6557022 77.47265625 349.45703125 C79.07194522 347.93136684 80.72890961 346.79378835 82.5625 345.5625 C93.04303188 337.85041051 101.09374363 325.84500406 108 315 C108.60690674 314.05133057 108.60690674 314.05133057 109.22607422 313.08349609 C132.13330422 276.84233829 142.58882125 230.90653042 133.59082031 188.54882812 C122.44692187 140.47349767 95.84717186 100.0315433 54 73.43359375 C1.23030162 40.75006486 -65.74091805 38.58917858 -120 69 Z " fill="#000000" transform="translate(548,212)"/>
<path d="M0 0 C1.67977371 1.31678238 3.3477225 2.64887653 5 4 C6.03833984 4.77730469 6.03833984 4.77730469 7.09765625 5.5703125 C21.79606874 17.20046791 31.25261807 37.23740154 33.75 55.4375 C35.74343694 81.69252316 30.02030994 103.58513172 13.1875 123.8125 C-1.34608767 139.23123741 -21.49884154 148.51748222 -42.62890625 149.203125 C-67.58834019 149.6004641 -88.34150439 143.19830141 -106.75 125.8125 C-124.38383186 107.35729606 -129.62790884 86.04493966 -129.2421875 61.046875 C-128.55925333 39.04422348 -118.52128493 20.49211943 -102.77734375 5.37890625 C-74.54607527 -18.80230683 -30.53726601 -21.75199446 0 0 Z M-92.390625 35.8671875 C-94.80678267 40.24009257 -95.80668244 43.9806426 -95 49 C-92.85224491 54.04627413 -89.94149183 57.94249636 -84.95703125 60.375 C-79.77337319 62.03045966 -75.51521054 61.77189971 -70.6875 59.3125 C-66.17411365 55.42888849 -63.34871771 51.98278732 -62.1328125 46.11328125 C-61.88944128 42.2408157 -62.95068952 39.25873962 -65 36 C-69.12346798 31.52725002 -72.52358524 29.25183879 -78.6875 28.625 C-84.43180595 28.73078832 -88.96252514 31.26428937 -92.390625 35.8671875 Z " fill="#000000" transform="translate(559,365)"/>
<path d="M0 0 C0.47630859 0.43763672 0.95261719 0.87527344 1.44335938 1.32617188 C2.31476563 2.11507812 3.18617188 2.90398437 4.08398438 3.71679688 C19.19817388 18.07052402 30.22825145 36.92406046 36.94335938 56.57617188 C37.1622583 57.21079346 37.38115723 57.84541504 37.60668945 58.49926758 C41.60971372 71.24536499 42.94968834 84.33725544 42.83447266 97.62841797 C42.81835714 99.82647677 42.83446202 102.02269827 42.85351562 104.22070312 C42.87362955 117.38215913 41.25324123 130.57672077 36.94335938 143.07617188 C36.69690674 143.79949707 36.4504541 144.52282227 36.1965332 145.26806641 C29.30321019 164.43268413 18.33178926 180.58584945 4.44335938 195.32617188 C3.61964844 196.22916016 3.61964844 196.22916016 2.77929688 197.15039062 C-17.05109287 218.10417683 -47.7264745 232.21788705 -76.5222168 233.50317383 C-77.9645879 233.52936159 -79.40707794 233.54951145 -80.84960938 233.56445312 C-81.62946701 233.57424698 -82.40932465 233.58404083 -83.21281433 233.59413147 C-115.85718602 233.91997298 -115.85718602 233.91997298 -130.55664062 229.32617188 C-131.56863525 229.02066406 -131.56863525 229.02066406 -132.60107422 228.70898438 C-149.41538434 223.46689972 -165.20933894 214.77170117 -178.55664062 203.32617188 C-179.33128662 202.66681641 -179.33128662 202.66681641 -180.12158203 201.99414062 C-203.90326062 181.58674039 -220.41709018 152.56533746 -224.55664062 121.32617188 C-224.72292969 120.14861328 -224.72292969 120.14861328 -224.89257812 118.94726562 C-228.97536739 83.69182855 -221.55629409 48.24588243 -200.55664062 19.32617188 C-197.70954537 15.82778033 -194.6785081 12.5776263 -191.55664062 9.32617188 C-190.44736504 7.99708592 -189.34298472 6.66389512 -188.24414062 5.32617188 C-167.75486279 -18.02972511 -135.17253257 -31.8166213 -104.68164062 -34.29882812 C-65.58157169 -36.62621318 -29.33604678 -26.75538548 0 0 Z M-150.55664062 7.32617188 C-151.55566406 7.99132812 -152.5546875 8.65648437 -153.58398438 9.34179688 C-178.35838248 26.92152746 -194.73880839 52.87470815 -200.36914062 82.70117188 C-205.14622461 111.22792644 -197.16491173 140.87407015 -180.49414062 164.32617188 C-159.56653392 191.01697491 -131.98089964 206.00555392 -98.55371094 210.09912109 C-72.50161871 213.06103378 -43.98335955 201.95942076 -23.55664062 186.32617188 C1.08020804 166.33039317 15.63330608 138.70584374 19.07226562 107.18945312 C21.5672059 78.63377809 9.98929527 50.16686515 -7.91601562 28.43945312 C-26.32477323 6.59047734 -53.93182923 -7.76513282 -82.43945312 -10.54492188 C-106.26521963 -11.99556818 -130.62184554 -5.94705839 -150.55664062 7.32617188 Z " fill="#000000" transform="translate(602.556640625,332.673828125)"/>
<path d="M0 0 C1.07121094 1.07314453 1.07121094 1.07314453 2.1640625 2.16796875 C3.98554339 3.99009056 5.81444996 5.80363867 7.6484375 7.61328125 C8.54820312 8.50402344 9.44796875 9.39476562 10.375 10.3125 C11.71691406 11.63701172 11.71691406 11.63701172 13.0859375 12.98828125 C15.91053069 15.84696436 18.52580329 18.86886571 21.15673828 21.9050293 C24.26485449 25.43757833 27.51119068 28.83765487 30.75 32.25 C36.33084762 38.15444946 41.86867745 44.09095961 47.34375 50.09375 C49.77734864 52.75639322 52.22417245 55.40590981 54.67675781 58.05102539 C56.68531499 60.22010506 58.68612521 62.39623102 60.68554688 64.57373047 C61.84099105 65.82746465 63.00571055 67.07263733 64.171875 68.31640625 C71.46925082 76.28426746 73.83006627 82.32382183 73.51171875 93.3671875 C72.74763065 98.79162973 70.725705 102.07734144 67 106 C66.15308594 106.89332031 66.15308594 106.89332031 65.2890625 107.8046875 C60.33968278 112.48532262 55.3430349 114.04065244 48.5625 114.25 C39.98865822 113.98842517 34.41728171 111.73714778 28 106 C26.876964 104.77821201 25.7782169 103.53371208 24.703125 102.26953125 C21.17661887 98.18082849 17.52071092 94.23619068 13.8125 90.3125 C12.49049939 88.90791531 11.16888984 87.50296246 9.84765625 86.09765625 C9.19812988 85.40687988 8.54860352 84.71610352 7.87939453 84.00439453 C1.40373063 77.09802916 -4.98532255 70.11079896 -11.375 63.125 C-14.42946924 59.78680648 -17.49690213 56.46273331 -20.58984375 53.16015625 C-21.51627686 52.17088135 -21.51627686 52.17088135 -22.46142578 51.16162109 C-23.6576281 49.88590335 -24.85513006 48.61140243 -26.05419922 47.33837891 C-29.82286795 43.32057811 -33.44108182 39.20501528 -37 35 C-35.34215088 31.41865648 -33.66968576 29.7048103 -30.5 27.3125 C-25.94090369 23.77821496 -21.6442704 20.05400765 -17.38671875 16.1640625 C-15.18731879 14.16984388 -12.94740113 12.23744393 -10.6875 10.3125 C-7.39215281 7.45653243 -4.73930016 4.38384137 -2 1 C-1.34 0.67 -0.68 0.34 0 0 Z " fill="#000000" transform="translate(698,605)"/>
</svg>
